<?xml version="1.0" encoding="UTF-8"?>
<svg id="Layer_1" data-name="Layer 1" xmlns="http://www.w3.org/2000/svg" xmlns:xlink="http://www.w3.org/1999/xlink" viewBox="0 0 1366 768">
  <defs>
    <style>
      .cls-1 {
        letter-spacing: -.000015751em;
      }

      .cls-2 {
        font-size: 31px;
      }

      .cls-2, .cls-3, .cls-4 {
        font-family: Montserrat-Medium, Montserrat;
        font-weight: 500;
      }

      .cls-5 {
        fill: #457e99;
      }

      .cls-6 {
        fill: url(#linear-gradient-2);
      }

      .cls-7, .cls-8, .cls-9, .cls-10, .cls-3 {
        fill: #fff;
      }

      .cls-7, .cls-8, .cls-9, .cls-11, .cls-12, .cls-13 {
        font-family: OpenSans-Semibold, 'Open Sans';
        font-weight: 600;
      }

      .cls-7, .cls-11, .cls-3, .cls-4 {
        font-size: 42px;
      }

      .cls-14 {
        fill: #c00000;
      }

      .cls-15 {
        fill: #4ea72e;
      }

      .cls-8, .cls-13 {
        font-size: 22px;
      }

      .cls-16 {
        fill: #156082;
      }

      .cls-9 {
        font-size: 24px;
      }

      .cls-17 {
        font-size: 20px;
      }

      .cls-17, .cls-18, .cls-19 {
        font-family: OpenSans-Italic, 'Open Sans';
        font-style: italic;
      }

      .cls-20 {
        letter-spacing: .0029926915em;
      }

      .cls-21 {
        fill: #ffc000;
      }

      .cls-22 {
        fill: #ff0;
      }

      .cls-23 {
        fill: #a6caec;
      }

      .cls-12 {
        font-size: 19px;
      }

      .cls-18 {
        font-size: 18px;
      }

      .cls-24 {
        fill: #c04f15;
      }

      .cls-25 {
        stroke-linecap: round;
        stroke-width: 4px;
      }

      .cls-25, .cls-26, .cls-27, .cls-28 {
        fill: none;
        stroke-miterlimit: 10;
      }

      .cls-25, .cls-28 {
        stroke: #457e99;
      }

      .cls-26 {
        stroke: url(#linear-gradient);
        stroke-width: 3px;
      }

      .cls-29 {
        letter-spacing: -.0149949597em;
      }

      .cls-30 {
        letter-spacing: -.0179876512em;
      }

      .cls-31 {
        letter-spacing: -.0169953377em;
      }

      .cls-32 {
        letter-spacing: -.0189957157em;
      }

      .cls-33 {
        letter-spacing: -.0189799647em;
      }

      .cls-34 {
        letter-spacing: -.0349829889em;
      }

      .cls-35 {
        letter-spacing: -.0329983619em;
      }

      .cls-27 {
        stroke: #4ea72e;
      }

      .cls-27, .cls-28 {
        stroke-width: 5px;
      }

      .cls-36 {
        letter-spacing: -.0119865171em;
      }

      .cls-37 {
        letter-spacing: -.0100018901em;
      }

      .cls-38 {
        letter-spacing: -.0069934476em;
      }

      .cls-39 {
        letter-spacing: -.0069776966em;
      }

      .cls-40 {
        letter-spacing: -.0080015121em;
      }

      .cls-19 {
        font-size: 28px;
      }

      .cls-41 {
        letter-spacing: .0099861391em;
      }
    </style>
    <linearGradient id="linear-gradient" x1="736.6125488281" y1="676.7855529785" x2="875.6536254883" y2="676.7855529785" gradientUnits="userSpaceOnUse">
      <stop offset="0" stop-color="#c00000"/>
      <stop offset="1" stop-color="#c04f15"/>
    </linearGradient>
    <linearGradient id="linear-gradient-2" y1="727.018371582" y2="727.018371582" xlink:href="#linear-gradient"/>
  </defs>
  <rect class="cls-10" x="6" y="11" width="1354" height="746"/>
  <text class="cls-2" transform="translate(56.7827148438 66.8857421875)"><tspan x="0" y="0">Unau</tspan><tspan class="cls-30" x="85.1557617188" y="0">t</tspan><tspan x="97.431640625" y="0">oma</tspan><tspan class="cls-30" x="168.4208984375" y="0">t</tspan><tspan x="180.6967773438" y="0">ed S</tspan><tspan class="cls-30" x="248.400390625" y="0">t</tspan><tspan class="cls-1" x="260.6762695312" y="0">eps of M</tspan><tspan class="cls-34" x="393.23046875" y="0">A</tspan><tspan class="cls-35" x="414.837890625" y="0">T</tspan><tspan class="cls-41" x="432.01171875" y="0">-</tspan><tspan class="cls-38" x="444.1943359375" y="0">c</tspan><tspan x="461.6787109375" y="0">lassifier </tspan><tspan class="cls-32" x="590.66796875" y="0">P</tspan><tspan x="612.4604492188" y="0">ipeli</tspan><tspan class="cls-20" x="678.5200195312" y="0">n</tspan><tspan x="699.7241210938" y="0">e:</tspan></text>
  <g>
    <rect class="cls-5" x="110.25" y="116.3154909985" width="140.5" height="57.5" rx="16.2878072537" ry="16.2878072537"/>
    <text class="cls-9" transform="translate(137.732421875 151.9619750977)"><tspan x="0" y="0">Sample</tspan></text>
    <g>
      <line class="cls-25" x1="252.75" y1="145.0654907227" x2="317.0506591797" y2="145.0654907227"/>
      <path class="cls-5" d="M331.7764587402,145.0654907227c-6.9291381836,2.5710601807-15.5264282227,6.9578094482-20.8555603027,11.6042938232l4.1972961426-11.6042938232-4.1972961426-11.6019058228c5.3291320801,4.6464614868,13.9264221191,9.033241272,20.8555603027,11.6019058228Z"/>
    </g>
    <rect class="cls-28" x="342.5891661362" y="116.3154909985" width="139.1608338638" height="57.5" rx="16.2878072537" ry="16.2878072537"/>
    <text class="cls-13" transform="translate(360.9346923828 151.387298584)"><tspan x="0" y="0">Trimming</tspan></text>
    <g>
      <line class="cls-25" x1="483.3259277344" y1="145.0654907227" x2="547.6265869141" y2="145.0654907227"/>
      <path class="cls-5" d="M562.352355957,145.0654907227c-6.9290771484,2.5710601807-15.5263671875,6.9578094482-20.8555297852,11.6042938232l4.1973266602-11.6042938232-4.1973266602-11.6019058228c5.3291625977,4.6464614868,13.9264526367,9.033241272,20.8555297852,11.6019058228Z"/>
    </g>
    <g>
      <line class="cls-25" x1="759.3259277344" y1="145.0654907227" x2="823.6265869141" y2="145.0654907227"/>
      <path class="cls-5" d="M838.352355957,145.0654907227c-6.9290771484,2.5710601807-15.5263671875,6.9578094482-20.8555297852,11.6042938232l4.1973266602-11.6042938232-4.1973266602-11.6019058228c5.3291625977,4.6464614868,13.9264526367,9.033241272,20.8555297852,11.6019058228Z"/>
    </g>
    <g>
      <rect class="cls-27" x="572.089691786" y="116.3154909985" width="184.660308214" height="57.5" rx="16.2878072537" ry="16.2878072537"/>
      <text class="cls-13" transform="translate(586.3992004395 151.3870391846)"><tspan x="0" y="0">Trimmed fastq</tspan></text>
    </g>
    <rect class="cls-28" x="848.2587492043" y="116.3154909985" width="132.4912507957" height="57.5" rx="16.2878072537" ry="16.2878072537"/>
    <text class="cls-13" transform="translate(870.4613647461 151.3871459961)"><tspan x="0" y="0">Kraken2</tspan></text>
    <g>
      <line class="cls-25" x1="982.3259277344" y1="145.0654907227" x2="1046.6265869141" y2="145.0654907227"/>
      <path class="cls-5" d="M1061.3524169922,145.0654907227c-6.9291992188,2.5710601807-15.5264892578,6.9578094482-20.8555908203,11.6042938232l4.197265625-11.6042938232-4.197265625-11.6019058228c5.3291015625,4.6464614868,13.9263916016,9.033241272,20.8555908203,11.6019058228Z"/>
    </g>
    <rect class="cls-27" x="1071.5935407383" y="116.3154909985" width="184.1564592617" height="57.5" rx="16.2878072537" ry="16.2878072537"/>
    <text class="cls-13" transform="translate(1083.975769043 151.3874816895)"><tspan x="0" y="0">Kraken reports</tspan></text>
  </g>
  <text class="cls-2" transform="translate(56.8135299683 258.2588806152)"><tspan class="cls-37" x="0" y="0">A</tspan><tspan x="22.3818359375" y="0">u</tspan><tspan class="cls-30" x="43.3686523438" y="0">t</tspan><tspan class="cls-1" x="55.64453125" y="0">oma</tspan><tspan class="cls-30" x="126.6337890625" y="0">t</tspan><tspan x="138.9096679688" y="0">ed S</tspan><tspan class="cls-30" x="206.6127929688" y="0">t</tspan><tspan x="218.888671875" y="0">eps of M</tspan><tspan class="cls-34" x="351.443359375" y="0">A</tspan><tspan class="cls-35" x="373.05078125" y="0">T</tspan><tspan class="cls-41" x="390.224609375" y="0">-</tspan><tspan class="cls-38" x="402.4072265625" y="0">c</tspan><tspan x="419.8916015625" y="0">lassifier </tspan><tspan class="cls-33" x="548.8803710938" y="0">P</tspan><tspan class="cls-1" x="570.6733398438" y="0">ipeli</tspan><tspan class="cls-20" x="636.7329101562" y="0">n</tspan><tspan x="657.9370117188" y="0">e:</tspan></text>
  <g>
    <g>
      <rect class="cls-5" x="66.631449429" y="367.0431217557" width="171.5419014904" height="138" rx="16.2878072537" ry="16.2878072537"/>
      <text class="cls-8" transform="translate(81.2636108398 402.7106323242)"><tspan x="0" y="0">Trimmed </tspan><tspan x="0" y="26.3999023438">fastq files </tspan><tspan x="0" y="52.7998046875">and Kraken2 </tspan><tspan x="0" y="79.2001953125">Reports</tspan></text>
    </g>
    <g>
      <line class="cls-25" x1="233.0403747559" y1="435.0431213379" x2="273.3572692871" y2="435.0431213379"/>
      <path class="cls-5" d="M288.0830688477,435.0431213379c-6.929107666,2.5710449219-15.5263977051,6.9577941895-20.8555603027,11.604309082l4.1972961426-11.604309082-4.1972961426-11.6018981934c5.3291625977,4.6464538574,13.9264526367,9.0332336426,20.8555603027,11.6018981934Z"/>
    </g>
    <g>
      <rect class="cls-28" x="297.6414385345" y="301.5431217557" width="211.3150328564" height="269" rx="16.2878072537" ry="16.2878072537"/>
      <path class="cls-5" d="M313.2201576883,301.5431217557h178.852845269c9.18333337,0,16.6390349283,7.4557015583,16.6390349283,16.6390349283v47.8609650717h-210.826165846v-49.1657143514c0-8.4632226394,6.8710630093-15.3342856486,15.3342856486-15.3342856486Z"/>
      <text class="cls-8" transform="translate(319.6657562256 326.9718322754)"><tspan x="0" y="0">Build Reference</tspan><tspan x="33.5478515625" y="26.3999023438">Database</tspan></text>
      <text transform="translate(326.090057373 405.9894104004)"><tspan class="cls-12"><tspan x="0" y="0">1. Kraken_parser</tspan></tspan><tspan class="cls-18"><tspan x="-2.2094726562" y="21.599609375">Parse Kraken report</tspan></tspan><tspan class="cls-18"><tspan x="17.8295898438" y="43.2001953125">to filter species</tspan></tspan></text>
      <text transform="translate(317.0009460449 499.1919250488)"><tspan class="cls-12"><tspan x="0" y="0">2. Genome_fetcher</tspan></tspan><tspan class="cls-18"><tspan x="8.3256835938" y="21.599609375">Download genomes</tspan></tspan><tspan class="cls-18"><tspan x="7.2490234375" y="43.2001953125">real-time from NCBI</tspan></tspan></text>
    </g>
    <g>
      <line class="cls-25" x1="510.9325866699" y1="436.0431213379" x2="548.3572998047" y2="436.0431213379"/>
      <path class="cls-5" d="M563.0830688477,436.0431213379c-6.9291381836,2.5710449219-15.5264282227,6.9577941895-20.8555908203,11.604309082l4.1973266602-11.604309082-4.1973266602-11.6018981934c5.3291625977,4.6464538574,13.9264526367,9.0332336426,20.8555908203,11.6018981934Z"/>
    </g>
    <g>
      <rect class="cls-28" x="568.424559006" y="301.5431217557" width="205.8145496218" height="269" rx="16.2878072537" ry="16.2878072537"/>
      <path class="cls-5" d="M584.0032781598,301.5431217557h173.3523620344c9.18333337,0,16.6390349283,7.4557015583,16.6390349283,16.6390349283v37.8405814874h-205.3256826113v-39.1453307671c0-8.4632226394,6.8710630093-15.3342856486,15.3342856486-15.3342856486Z"/>
      <text class="cls-9" transform="translate(611.6953735352 334.9718360901)"><tspan x="0" y="0">Alignment</tspan></text>
      <text transform="translate(598.3796863556 400.9894142151)"><tspan class="cls-12"><tspan x="0" y="0">1. Concatenator</tspan></tspan><tspan class="cls-18"><tspan x="-6.369140625" y="21.599609375">Genus-level analysis</tspan></tspan><tspan class="cls-18"><tspan x="4.7490234375" y="43.2001953125">by concatenation</tspan></tspan></text>
      <text transform="translate(586.2859363556 493.1919250488)"><tspan class="cls-12"><tspan x="0" y="0">2. Bowtie_wrapper</tspan></tspan><tspan class="cls-18"><tspan x="4.3706054688" y="21.599609375">Fast Bowtie2 end-to-</tspan></tspan><tspan class="cls-18"><tspan x="25.3149414062" y="43.2001953125">-end alignment</tspan></tspan></text>
    </g>
    <g>
      <rect class="cls-28" x="833.7183292324" y="301.5431217557" width="213.9777340209" height="269" rx="16.2878072537" ry="16.2878072537"/>
      <path class="cls-5" d="M849.0414818914,301.5431217557h182.026679423c9.18333337,0,16.6390349283,7.4557015583,16.6390349283,16.6390349283v43.6660260948h-214v-44.9707753745c0-8.4632226394,6.8710630093-15.3342856486,15.3342856486-15.3342856486Z"/>
      <text class="cls-10" transform="translate(860.9412841797 326.9718399048)"><tspan class="cls-13"><tspan x="0" y="0">Scoring system</tspan></tspan><tspan class="cls-17"><tspan x="17.5883789062" y="24">using score.py</tspan></tspan></text>
      <text class="cls-17" transform="translate(873.3137817383 399.9894180298)"><tspan x="0" y="0">PMDtools (1 pt)</tspan><tspan x="-4.9267578125" y="24">PyDamage (1 pt)</tspan><tspan x="-10.4541015625" y="48">Read-length (1 pt)</tspan></text>
      <text class="cls-17" transform="translate(854.6563110352 491.1919326782)"><tspan x="0" y="0">Depth &amp; Breadth of</tspan><tspan x="20.283203125" y="24">coverage (1 pt)</tspan><tspan x="3.544921875" y="48">Edit distance (1 pt)</tspan></text>
    </g>
    <g>
      <line class="cls-25" x1="1048.6207275391" y1="436.0431213379" x2="1086.0454101562" y2="436.0431213379"/>
      <path class="cls-5" d="M1100.7712402344,436.0431213379c-6.9291992188,2.5710449219-15.5264892578,6.9577941895-20.8555908203,11.604309082l4.197265625-11.604309082-4.197265625-11.6018981934c5.3291015625,4.6464538574,13.9263916016,9.0332336426,20.8555908203,11.6018981934Z"/>
    </g>
    <g>
      <line class="cls-25" x1="774.8441772461" y1="436.0431213379" x2="812.2688598633" y2="436.0431213379"/>
      <path class="cls-5" d="M826.9946899414,436.0431213379c-6.9291381836,2.5710449219-15.5264282227,6.9577941895-20.8555908203,11.604309082l4.1973266602-11.604309082-4.1973266602-11.6018981934c5.3291625977,4.6464538574,13.9264526367,9.0332336426,20.8555908203,11.6018981934Z"/>
    </g>
    <g>
      <g>
        <path d="M1122.3701171875,394.107421875h-2.091796875l1.6611328125-7.646484375c.1640625-.87890625.404296875-1.828125.720703125-2.84765625-.333984375.322265625-.7294921875.62109375-1.1865234375.896484375l-1.6435546875,1.0283203125-.931640625-1.494140625,4.46484375-2.7861328125h1.740234375l-2.7333984375,12.849609375Z"/>
        <path d="M1126.9755859375,393.28125c0-.486328125.1376953125-.8740234375.4130859375-1.1640625s.6591796875-.435546875,1.1513671875-.435546875c.328125,0,.58984375.0927734375.7861328125.27734375s.294921875.455078125.294921875.8125c0,.45703125-.1396484375.8369140625-.41796875,1.138671875s-.642578125.4521484375-1.09375.4521484375c-.38671875,0-.671875-.103515625-.857421875-.3115234375-.18359375-.2080078125-.2763671875-.46484375-.2763671875-.76953125Z"/>
        <path d="M1142.892578125,382.875c-.90234375,0-1.7080078125.2607421875-2.4169921875.7822265625s-1.2763671875,1.2817382812-1.7001953125,2.28125c-.42578125.9990234375-.6376953125,2.095703125-.6376953125,3.291015625,0,1.0546875.2412109375,1.8623046875.7255859375,2.421875.482421875.5595703125,1.1962890625.8388671875,2.1396484375.8388671875.826171875,0,1.7900390625-.19921875,2.8916015625-.59765625v1.8017578125c-1.0546875.392578125-2.150390625.5888671875-3.287109375.5888671875-1.453125,0-2.591796875-.4345703125-3.4140625-1.3046875-.82421875-.8701171875-1.2353515625-2.0908203125-1.2353515625-3.6611328125,0-1.5234375.30859375-2.9384765625.9267578125-4.2451171875s1.443359375-2.2998046875,2.474609375-2.9794921875,2.208984375-1.01953125,3.533203125-1.01953125c1.271484375,0,2.4111328125.26953125,3.4189453125.80859375l-.826171875,1.7138671875c-.369140625-.19921875-.76171875-.369140625-1.177734375-.509765625s-.8876953125-.2109375-1.4150390625-.2109375Z"/>
        <path d="M1149.9853515625,384.38671875l-1.1337890625,5.361328125c-.181640625.826171875-.2724609375,1.3916015625-.2724609375,1.6962890625,0,.779296875.3720703125,1.1689453125,1.1162109375,1.1689453125.421875,0,.8408203125-.1669921875,1.2568359375-.5009765625s.78515625-.8095703125,1.107421875-1.427734375.5712890625-1.34375.7470703125-2.17578125l.8701171875-4.1220703125h2.0478515625l-2.0478515625,9.720703125h-1.6259765625l.1845703125-1.8017578125h-.0703125c-.48046875.6796875-.9814453125,1.1796875-1.5029296875,1.4990234375s-1.083984375.478515625-1.6875.478515625c-.78515625,0-1.3916015625-.22265625-1.8193359375-.66796875s-.6416015625-1.083984375-.6416015625-1.916015625c0-.369140625.03515625-.7333984375.10546875-1.09375s.140625-.72265625.2109375-1.0859375l1.0810546875-5.1328125h2.07421875Z"/>
        <path d="M1163.248046875,384.2109375c1.2890625,0,2.033203125.6884765625,2.232421875,2.0654296875h.0703125c.439453125-.6796875.9384765625-1.193359375,1.4990234375-1.5424804688.55859375-.3486328125,1.140625-.5229492188,1.744140625-.5229492188.779296875,0,1.3720703125.2241210938,1.779296875.6723632812.4072265625.4487304688.611328125,1.0795898438.611328125,1.8940429688,0,.375-.064453125.9052734375-.193359375,1.5908203125l-1.23046875,5.7392578125h-2.0654296875l1.2568359375-5.90625c.111328125-.556640625.1669921875-.9462890625.1669921875-1.1689453125,0-.755859375-.3544921875-1.1337890625-1.0634765625-1.1337890625-.6328125,0-1.2236328125.36328125-1.771484375,1.08984375s-.947265625,1.6904296875-1.19921875,2.8916015625l-.8876953125,4.2275390625h-2.0654296875l1.2568359375-5.90625c.099609375-.48046875.1494140625-.8525390625.1494140625-1.1162109375,0-.791015625-.3427734375-1.1865234375-1.0283203125-1.1865234375-.64453125,0-1.2412109375.3720703125-1.7880859375,1.1162109375-.548828125.744140625-.9541015625,1.734375-1.2177734375,2.970703125l-.861328125,4.1220703125h-2.07421875l2.07421875-9.720703125h1.6171875l-.1845703125,1.8017578125h.0791015625c.8671875-1.318359375,1.8984375-1.9775390625,3.09375-1.9775390625Z"/>
        <path d="M1176.58984375,384.38671875l-1.1337890625,5.361328125c-.181640625.826171875-.2724609375,1.3916015625-.2724609375,1.6962890625,0,.779296875.3720703125,1.1689453125,1.1162109375,1.1689453125.421875,0,.8408203125-.1669921875,1.2568359375-.5009765625s.78515625-.8095703125,1.107421875-1.427734375.5712890625-1.34375.7470703125-2.17578125l.8701171875-4.1220703125h2.0478515625l-2.0478515625,9.720703125h-1.6259765625l.1845703125-1.8017578125h-.0703125c-.48046875.6796875-.9814453125,1.1796875-1.5029296875,1.4990234375s-1.083984375.478515625-1.6875.478515625c-.78515625,0-1.3916015625-.22265625-1.8193359375-.66796875s-.6416015625-1.083984375-.6416015625-1.916015625c0-.369140625.03515625-.7333984375.10546875-1.09375s.140625-.72265625.2109375-1.0859375l1.0810546875-5.1328125h2.07421875Z"/>
        <path d="M1185.2294921875,394.107421875h-2.056640625l2.900390625-13.67578125h2.0654296875l-2.9091796875,13.67578125Z"/>
        <path d="M1191.21484375,394.283203125c-.826171875,0-1.4794921875-.296875-1.9599609375-.8916015625s-.720703125-1.431640625-.720703125-2.509765625c0-1.18359375.203125-2.291015625.611328125-3.322265625.40625-1.03125.9677734375-1.8466796875,1.6826171875-2.447265625.71484375-.6010742188,1.5-.9013671875,2.35546875-.9013671875.568359375,0,1.0576171875.1333007812,1.4677734375.3999023438s.7294921875.6547851562.9580078125,1.1645507812h.087890625l.544921875-1.388671875h1.58203125l-2.07421875,9.720703125h-1.599609375l.1845703125-1.546875h-.052734375c-.92578125,1.1484375-1.9482421875,1.72265625-3.0673828125,1.72265625ZM1191.970703125,392.61328125c.48046875,0,.9521484375-.2265625,1.4150390625-.6806640625s.84375-1.0625,1.142578125-1.82421875.4482421875-1.59375.4482421875-2.49609375c0-.515625-.1376953125-.9296875-.4130859375-1.2431640625s-.6357421875-.470703125-1.0810546875-.470703125c-.498046875,0-.966796875.2255859375-1.40625.6767578125s-.791015625,1.0654296875-1.0546875,1.841796875-.3955078125,1.580078125-.3955078125,2.412109375c0,.59765625.119140625,1.044921875.35546875,1.3408203125.23828125.2958984375.5673828125.443359375.9892578125.443359375Z"/>
        <path d="M1202.130859375,392.61328125c.3984375,0,.8408203125-.0908203125,1.3271484375-.2724609375v1.564453125c-.205078125.099609375-.4833984375.1875-.8349609375.263671875s-.703125.1142578125-1.0546875.1142578125c-1.60546875,0-2.408203125-.7236328125-2.408203125-2.1708984375,0-.333984375.046875-.7177734375.140625-1.1513671875l1.0634765625-5.009765625h-1.423828125l.1845703125-.966796875,1.669921875-.720703125,1.1337890625-2.0390625h1.283203125l-.45703125,2.162109375h2.4521484375l-.3427734375,1.564453125h-2.4345703125l-1.072265625,5.02734375c-.076171875.322265625-.1142578125.591796875-.1142578125.80859375,0,.251953125.0732421875.453125.2197265625.6025390625s.369140625.2236328125.66796875.2236328125Z"/>
        <path d="M1207.228515625,394.107421875h-2.07421875l2.07421875-9.720703125h2.0654296875l-2.0654296875,9.720703125ZM1207.6416015625,381.99609375c0-.3984375.1142578125-.720703125.3427734375-.966796875s.55078125-.369140625.966796875-.369140625c.310546875,0,.5625.0776367188.755859375.2329101562s.2900390625.3911132812.2900390625.7075195312c0,.416015625-.1171875.744140625-.3515625.984375s-.5419921875.3603515625-.9228515625.3603515625c-.310546875,0-.568359375-.076171875-.7734375-.228515625s-.3076171875-.392578125-.3076171875-.720703125Z"/>
        <path d="M1211.7197265625,394.107421875l-1.1513671875-9.720703125h2.0390625l.4833984375,5.255859375c.08203125.931640625.123046875,1.8017578125.123046875,2.6103515625h.0615234375c.1640625-.43359375.369140625-.9169921875.615234375-1.4501953125s.4365234375-.919921875.5712890625-1.16015625l2.7333984375-5.255859375h2.197265625l-5.255859375,9.720703125h-2.4169921875Z"/>
        <path d="M1222.9521484375,394.283203125c-1.154296875,0-2.0556640625-.3251953125-2.703125-.9755859375s-.970703125-1.55859375-.970703125-2.724609375c0-1.16015625.2265625-2.2392578125.681640625-3.23828125.453125-.9990234375,1.068359375-1.771484375,1.845703125-2.31640625.775390625-.544921875,1.64453125-.8173828125,2.60546875-.8173828125.943359375,0,1.6767578125.2124023438,2.201171875.6372070312.5244140625.4252929688.787109375,1.0268554688.787109375,1.8061523438,0,1.06640625-.48828125,1.900390625-1.462890625,2.5009765625-.9765625.6005859375-2.3662109375.900390625-4.1708984375.900390625h-.3779296875l-.017578125.2724609375v.2548828125c0,.650390625.1650390625,1.16015625.49609375,1.529296875s.8251953125.5537109375,1.4814453125.5537109375c.421875,0,.8408203125-.0556640625,1.2568359375-.1669921875s.908203125-.3017578125,1.4765625-.5712890625v1.6435546875c-.5625.2578125-1.080078125.44140625-1.55078125.5498046875-.47265625.1083984375-.998046875.162109375-1.578125.162109375ZM1224.2880859375,385.79296875c-.5625,0-1.091796875.251953125-1.5859375.755859375-.49609375.50390625-.8515625,1.1689453125-1.068359375,1.9951171875h.2548828125c1.1015625,0,1.962890625-.15625,2.583984375-.4697265625s.931640625-.7578125.931640625-1.33203125c0-.298828125-.09375-.53125-.28125-.6982421875s-.4658203125-.2509765625-.8349609375-.2509765625Z"/>
        <path d="M1239.44921875,391.119140625c0,1.013671875-.345703125,1.794921875-1.037109375,2.3427734375s-1.65234375.8212890625-2.8828125.8212890625c-1.11328125,0-2.056640625-.1962890625-2.830078125-.5888671875v-1.7841796875c.896484375.52734375,1.810546875.791015625,2.7421875.791015625.568359375,0,1.0283203125-.1171875,1.3798828125-.3515625s.52734375-.5537109375.52734375-.9580078125c0-.298828125-.1005859375-.5546875-.3037109375-.7685546875-.201171875-.2138671875-.6162109375-.5-1.2431640625-.857421875-.732421875-.392578125-1.25-.7919921875-1.5517578125-1.19921875s-.4521484375-.8896484375-.4521484375-1.4462890625c0-.908203125.3134765625-1.6201171875.9404296875-2.1357421875s1.4736328125-.7734375,2.5400390625-.7734375c1.1484375,0,2.162109375.24609375,3.041015625.73828125l-.66796875,1.546875c-.8203125-.4453125-1.599609375-.66796875-2.337890625-.66796875-.427734375,0-.775390625.0966796875-1.0419921875.2900390625s-.3994140625.462890625-.3994140625.80859375c0,.263671875.0966796875.498046875.2900390625.703125s.5888671875.46875,1.1865234375.791015625c.615234375.345703125,1.0517578125.6416015625,1.3095703125.8876953125s.4541015625.5146484375.5888671875.8046875.2021484375.625.2021484375,1.005859375Z"/>
        <path d="M1245.126953125,394.283203125c-1.1484375,0-2.0390625-.310546875-2.671875-.931640625s-.94921875-1.5087890625-.94921875-2.6630859375c0-1.212890625.21484375-2.3154296875.646484375-3.30859375.4296875-.9931640625,1.03515625-1.76953125,1.814453125-2.3291015625.779296875-.5600585938,1.6640625-.83984375,2.654296875-.83984375.9609375,0,1.8310546875.1787109375,2.6103515625.5361328125l-.615234375,1.6171875c-.71484375-.310546875-1.3623046875-.4658203125-1.9423828125-.4658203125-.87890625,0-1.611328125.4501953125-2.197265625,1.349609375s-.87890625,2.0107421875-.87890625,3.3349609375c0,.650390625.1640625,1.1513671875.4921875,1.5029296875s.7822265625.52734375,1.3623046875.52734375c.43359375,0,.8388671875-.064453125,1.2177734375-.193359375.376953125-.12890625.7568359375-.287109375,1.1376953125-.474609375v1.7138671875c-.8203125.416015625-1.7138671875.6240234375-2.6806640625.6240234375Z"/>
        <path d="M1258.5478515625,388.025390625c0,1.18359375-.2138671875,2.2607421875-.6416015625,3.23046875s-1.015625,1.7138671875-1.76171875,2.232421875c-.748046875.5185546875-1.607421875.77734375-2.580078125.77734375-1.125,0-2.0185546875-.3349609375-2.6806640625-1.005859375s-.9931640625-1.583984375-.9931640625-2.73828125c0-1.166015625.208984375-2.2353515625.62890625-3.2080078125.41796875-.97265625,1.005859375-1.7294921875,1.76171875-2.271484375.755859375-.5424804688,1.62890625-.8134765625,2.619140625-.8134765625,1.142578125,0,2.0361328125.33984375,2.6806640625,1.01953125s.966796875,1.60546875.966796875,2.77734375ZM1256.46484375,387.9375c0-.626953125-.1435546875-1.1171875-.4306640625-1.4716796875s-.697265625-.5322265625-1.23046875-.5322265625c-.544921875,0-1.0322265625.2099609375-1.4638671875.62890625-.4296875.4189453125-.763671875.9873046875-1.001953125,1.705078125-.236328125.7177734375-.35546875,1.4833984375-.35546875,2.2978515625,0,.650390625.14453125,1.1484375.435546875,1.494140625.2890625.345703125.71875.5185546875,1.287109375.5185546875.52734375,0,1.001953125-.19921875,1.423828125-.59765625s.75-.9560546875.984375-1.673828125.3515625-1.5078125.3515625-2.369140625Z"/>
        <path d="M1266.3876953125,384.2109375c.36328125,0,.6796875.03515625.94921875.10546875l-.4482421875,1.9248046875c-.31640625-.08203125-.615234375-.123046875-.896484375-.123046875-.73828125,0-1.3974609375.3310546875-1.9775390625.9931640625s-.984375,1.529296875-1.212890625,2.6015625l-.931640625,4.39453125h-2.07421875l2.07421875-9.720703125h1.6171875l-.1845703125,1.8017578125h.0791015625c.486328125-.703125.97265625-1.2084960938,1.458984375-1.5161132812s1.001953125-.4614257812,1.546875-.4614257812Z"/>
        <path d="M1271.23046875,394.283203125c-1.154296875,0-2.0556640625-.3251953125-2.703125-.9755859375s-.970703125-1.55859375-.970703125-2.724609375c0-1.16015625.2265625-2.2392578125.681640625-3.23828125.453125-.9990234375,1.068359375-1.771484375,1.845703125-2.31640625.775390625-.544921875,1.64453125-.8173828125,2.60546875-.8173828125.943359375,0,1.6767578125.2124023438,2.201171875.6372070312.5244140625.4252929688.787109375,1.0268554688.787109375,1.8061523438,0,1.06640625-.48828125,1.900390625-1.462890625,2.5009765625-.9765625.6005859375-2.3662109375.900390625-4.1708984375.900390625h-.3779296875l-.017578125.2724609375v.2548828125c0,.650390625.1650390625,1.16015625.49609375,1.529296875s.8251953125.5537109375,1.4814453125.5537109375c.421875,0,.8408203125-.0556640625,1.2568359375-.1669921875s.908203125-.3017578125,1.4765625-.5712890625v1.6435546875c-.5625.2578125-1.080078125.44140625-1.55078125.5498046875-.47265625.1083984375-.998046875.162109375-1.578125.162109375ZM1272.56640625,385.79296875c-.5625,0-1.091796875.251953125-1.5859375.755859375-.49609375.50390625-.8515625,1.1689453125-1.068359375,1.9951171875h.2548828125c1.1015625,0,1.962890625-.15625,2.583984375-.4697265625s.931640625-.7578125.931640625-1.33203125c0-.298828125-.09375-.53125-.28125-.6982421875s-.4658203125-.2509765625-.8349609375-.2509765625Z"/>
        <path d="M1283.0517578125,391.119140625c0,1.013671875-.345703125,1.794921875-1.037109375,2.3427734375s-1.65234375.8212890625-2.8828125.8212890625c-1.11328125,0-2.056640625-.1962890625-2.830078125-.5888671875v-1.7841796875c.896484375.52734375,1.810546875.791015625,2.7421875.791015625.568359375,0,1.0283203125-.1171875,1.3798828125-.3515625s.52734375-.5537109375.52734375-.9580078125c0-.298828125-.1005859375-.5546875-.3037109375-.7685546875-.201171875-.2138671875-.6162109375-.5-1.2431640625-.857421875-.732421875-.392578125-1.25-.7919921875-1.5517578125-1.19921875s-.4521484375-.8896484375-.4521484375-1.4462890625c0-.908203125.3134765625-1.6201171875.9404296875-2.1357421875s1.4736328125-.7734375,2.5400390625-.7734375c1.1484375,0,2.162109375.24609375,3.041015625.73828125l-.66796875,1.546875c-.8203125-.4453125-1.599609375-.66796875-2.337890625-.66796875-.427734375,0-.775390625.0966796875-1.0419921875.2900390625s-.3994140625.462890625-.3994140625.80859375c0,.263671875.0966796875.498046875.2900390625.703125s.5888671875.46875,1.1865234375.791015625c.615234375.345703125,1.0517578125.6416015625,1.3095703125.8876953125s.4541015625.5146484375.5888671875.8046875.2021484375.625.2021484375,1.005859375Z"/>
        <path d="M1137.2587890625,415.7080078125h-2.07421875l2.07421875-9.720703125h2.0654296875l-2.0654296875,9.720703125ZM1137.671875,403.5966796875c0-.3984375.1142578125-.720703125.3427734375-.966796875s.55078125-.369140625.966796875-.369140625c.310546875,0,.5625.0771484375.755859375.232421875s.2900390625.3916015625.2900390625.7080078125c0,.416015625-.1171875.744140625-.3515625.984375s-.5419921875.3603515625-.9228515625.3603515625c-.310546875,0-.568359375-.076171875-.7734375-.228515625s-.3076171875-.392578125-.3076171875-.720703125Z"/>
        <path d="M1145.8896484375,415.7080078125l1.248046875-5.90625c.10546875-.52734375.158203125-.9111328125.158203125-1.1513671875,0-.767578125-.3779296875-1.1513671875-1.1337890625-1.1513671875-.421875,0-.837890625.1669921875-1.248046875.5009765625s-.779296875.8154296875-1.107421875,1.4453125-.57421875,1.34375-.73828125,2.140625l-.861328125,4.1220703125h-2.07421875l2.07421875-9.720703125h1.6171875l-.1845703125,1.8017578125h.0791015625c.486328125-.69140625.9873046875-1.1943359375,1.5029296875-1.5078125s1.0751953125-.4697265625,1.6787109375-.4697265625c.78515625,0,1.3935546875.22265625,1.8232421875.66796875.431640625.4453125.646484375,1.078125.646484375,1.8984375,0,.404296875-.0673828125.9345703125-.2021484375,1.5908203125l-1.2041015625,5.7392578125h-2.07421875Z"/>
        <path d="M1159.6533203125,415.7080078125h-2.0830078125l2.3203125-11.0478515625h-3.3310546875l.3955078125-1.8017578125h8.771484375l-.3779296875,1.8017578125h-3.3486328125l-2.3466796875,11.0478515625Z"/>
        <path d="M1167.7744140625,415.8837890625c-.826171875,0-1.4794921875-.2978515625-1.9599609375-.892578125s-.720703125-1.4306640625-.720703125-2.5087890625c0-1.18359375.203125-2.291015625.611328125-3.322265625.40625-1.03125.9677734375-1.84765625,1.6826171875-2.4482421875s1.5-.900390625,2.35546875-.900390625c.568359375,0,1.0576171875.1328125,1.4677734375.3994140625s.7294921875.6552734375.9580078125,1.1650390625h.087890625l.544921875-1.388671875h1.58203125l-2.07421875,9.720703125h-1.599609375l.1845703125-1.546875h-.052734375c-.92578125,1.1484375-1.9482421875,1.72265625-3.0673828125,1.72265625ZM1168.5302734375,414.2138671875c.48046875,0,.9521484375-.2275390625,1.4150390625-.681640625s.84375-1.0615234375,1.142578125-1.8232421875.4482421875-1.59375.4482421875-2.49609375c0-.515625-.1376953125-.9306640625-.4130859375-1.244140625s-.6357421875-.4697265625-1.0810546875-.4697265625c-.498046875,0-.966796875.2255859375-1.40625.6767578125s-.791015625,1.064453125-1.0546875,1.8408203125-.3955078125,1.5810546875-.3955078125,2.4130859375c0,.59765625.119140625,1.0439453125.35546875,1.33984375.23828125.2958984375.5673828125.4443359375.9892578125.4443359375Z"/>
        <path d="M1179.771484375,415.8837890625c-.57421875,0-1.068359375-.1318359375-1.48046875-.3955078125-.4140625-.263671875-.7373046875-.6474609375-.9716796875-1.1513671875h-.087890625l-.5625,1.37109375h-1.564453125l2.900390625-13.67578125h2.0654296875l-.6240234375,2.9267578125c-.076171875.369140625-.1875.8271484375-.333984375,1.375s-.263671875.9599609375-.3515625,1.2353515625h.0703125c.52734375-.662109375,1.0107421875-1.12109375,1.4501953125-1.3759765625s.9111328125-.3818359375,1.4150390625-.3818359375c.849609375,0,1.51171875.302734375,1.986328125.9091796875s.7119140625,1.443359375.7119140625,2.509765625c0,1.18359375-.2041015625,2.294921875-.611328125,3.3349609375s-.96484375,1.853515625-1.673828125,2.439453125-1.48828125.87890625-2.337890625.87890625ZM1180.9404296875,407.4990234375c-.474609375,0-.94921875.234375-1.423828125.703125s-.8564453125,1.0849609375-1.1474609375,1.849609375c-.2890625.7646484375-.4345703125,1.5576171875-.4345703125,2.3779296875,0,.5625.1357421875,1,.4091796875,1.3134765625.271484375.3134765625.6572265625.470703125,1.1552734375.470703125s.9638671875-.23046875,1.3974609375-.6904296875.7763671875-1.0751953125,1.0283203125-1.845703125.3779296875-1.57421875.3779296875-2.412109375c0-1.177734375-.4541015625-1.7666015625-1.3623046875-1.7666015625Z"/>
        <path d="M1189.685546875,405.9873046875l-1.1337890625,5.361328125c-.181640625.826171875-.2724609375,1.3916015625-.2724609375,1.6962890625,0,.779296875.3720703125,1.1689453125,1.1162109375,1.1689453125.421875,0,.8408203125-.1669921875,1.2568359375-.5009765625s.78515625-.810546875,1.107421875-1.4287109375.5712890625-1.3427734375.7470703125-2.1748046875l.8701171875-4.1220703125h2.0478515625l-2.0478515625,9.720703125h-1.6259765625l.1845703125-1.8017578125h-.0703125c-.48046875.6796875-.9814453125,1.1787109375-1.5029296875,1.498046875s-1.083984375.4794921875-1.6875.4794921875c-.78515625,0-1.3916015625-.22265625-1.8193359375-.66796875s-.6416015625-1.083984375-.6416015625-1.916015625c0-.369140625.03515625-.734375.10546875-1.0947265625s.140625-.7216796875.2109375-1.0849609375l1.0810546875-5.1328125h2.07421875Z"/>
        <path d="M1198.3251953125,415.7080078125h-2.056640625l2.900390625-13.67578125h2.0654296875l-2.9091796875,13.67578125Z"/>
        <path d="M1204.310546875,415.8837890625c-.826171875,0-1.4794921875-.2978515625-1.9599609375-.892578125s-.720703125-1.4306640625-.720703125-2.5087890625c0-1.18359375.203125-2.291015625.611328125-3.322265625.40625-1.03125.9677734375-1.84765625,1.6826171875-2.4482421875s1.5-.900390625,2.35546875-.900390625c.568359375,0,1.0576171875.1328125,1.4677734375.3994140625s.7294921875.6552734375.9580078125,1.1650390625h.087890625l.544921875-1.388671875h1.58203125l-2.07421875,9.720703125h-1.599609375l.1845703125-1.546875h-.052734375c-.92578125,1.1484375-1.9482421875,1.72265625-3.0673828125,1.72265625ZM1205.06640625,414.2138671875c.48046875,0,.9521484375-.2275390625,1.4150390625-.681640625s.84375-1.0615234375,1.142578125-1.8232421875.4482421875-1.59375.4482421875-2.49609375c0-.515625-.1376953125-.9306640625-.4130859375-1.244140625s-.6357421875-.4697265625-1.0810546875-.4697265625c-.498046875,0-.966796875.2255859375-1.40625.6767578125s-.791015625,1.064453125-1.0546875,1.8408203125-.3955078125,1.5810546875-.3955078125,2.4130859375c0,.59765625.119140625,1.0439453125.35546875,1.33984375.23828125.2958984375.5673828125.4443359375.9892578125.4443359375Z"/>
        <path d="M1218.232421875,405.8115234375c.36328125,0,.6796875.03515625.94921875.10546875l-.4482421875,1.9248046875c-.31640625-.08203125-.615234375-.123046875-.896484375-.123046875-.73828125,0-1.3974609375.3310546875-1.9775390625.9931640625s-.984375,1.529296875-1.212890625,2.6015625l-.931640625,4.39453125h-2.07421875l2.07421875-9.720703125h1.6171875l-.1845703125,1.8017578125h.0791015625c.486328125-.703125.97265625-1.208984375,1.458984375-1.5166015625s1.001953125-.4609375,1.546875-.4609375Z"/>
        <path d="M1226.7578125,415.8837890625c-.826171875,0-1.4794921875-.2978515625-1.9599609375-.892578125s-.720703125-1.4306640625-.720703125-2.5087890625c0-1.18359375.203125-2.291015625.611328125-3.322265625.40625-1.03125.9677734375-1.84765625,1.6826171875-2.4482421875s1.5-.900390625,2.35546875-.900390625c.568359375,0,1.0576171875.1328125,1.4677734375.3994140625s.7294921875.6552734375.9580078125,1.1650390625h.087890625l.544921875-1.388671875h1.58203125l-2.07421875,9.720703125h-1.599609375l.1845703125-1.546875h-.052734375c-.92578125,1.1484375-1.9482421875,1.72265625-3.0673828125,1.72265625ZM1227.513671875,414.2138671875c.48046875,0,.9521484375-.2275390625,1.4150390625-.681640625s.84375-1.0615234375,1.142578125-1.8232421875.4482421875-1.59375.4482421875-2.49609375c0-.515625-.1376953125-.9306640625-.4130859375-1.244140625s-.6357421875-.4697265625-1.0810546875-.4697265625c-.498046875,0-.966796875.2255859375-1.40625.6767578125s-.791015625,1.064453125-1.0546875,1.8408203125-.3955078125,1.5810546875-.3955078125,2.4130859375c0,.59765625.119140625,1.0439453125.35546875,1.33984375.23828125.2958984375.5673828125.4443359375.9892578125.4443359375Z"/>
        <path d="M1239.8447265625,415.7080078125l1.248046875-5.90625c.10546875-.52734375.158203125-.9111328125.158203125-1.1513671875,0-.767578125-.3779296875-1.1513671875-1.1337890625-1.1513671875-.421875,0-.837890625.1669921875-1.248046875.5009765625s-.779296875.8154296875-1.107421875,1.4453125-.57421875,1.34375-.73828125,2.140625l-.861328125,4.1220703125h-2.07421875l2.07421875-9.720703125h1.6171875l-.1845703125,1.8017578125h.0791015625c.486328125-.69140625.9873046875-1.1943359375,1.5029296875-1.5078125s1.0751953125-.4697265625,1.6787109375-.4697265625c.78515625,0,1.3935546875.22265625,1.8232421875.66796875.431640625.4453125.646484375,1.078125.646484375,1.8984375,0,.404296875-.0673828125.9345703125-.2021484375,1.5908203125l-1.2041015625,5.7392578125h-2.07421875Z"/>
        <path d="M1249.767578125,405.8115234375c1.048828125,0,1.833984375.521484375,2.35546875,1.564453125h.0703125c.076171875-.85546875.1845703125-1.587890625.3251953125-2.197265625l.66796875-3.146484375h2.0478515625l-2.900390625,13.67578125h-1.6171875l.1669921875-1.546875h-.0615234375c-.515625.62109375-1.013671875,1.0634765625-1.494140625,1.3271484375s-.990234375.3955078125-1.529296875.3955078125c-.837890625,0-1.494140625-.2978515625-1.96875-.892578125s-.7119140625-1.4365234375-.7119140625-2.5263671875c0-1.201171875.208984375-2.3232421875.62890625-3.3662109375.41796875-1.04296875.9794921875-1.8515625,1.6826171875-2.42578125s1.482421875-.861328125,2.337890625-.861328125ZM1248.58984375,414.2138671875c.48046875,0,.9560546875-.240234375,1.4287109375-.720703125.470703125-.48046875.8486328125-1.107421875,1.1328125-1.880859375s.4267578125-1.5556640625.4267578125-2.3466796875c0-.533203125-.1279296875-.9609375-.3818359375-1.283203125-.255859375-.322265625-.6435546875-.4833984375-1.1650390625-.4833984375-.498046875,0-.9638671875.2255859375-1.3974609375.6767578125s-.779296875,1.0693359375-1.037109375,1.8544921875-.38671875,1.5849609375-.38671875,2.3994140625c0,1.189453125.4599609375,1.7841796875,1.3798828125,1.7841796875Z"/>
        <path d="M1141.6796875,430.337890625h4.5l-1.3798828125,6.46875c-.65625.234375-1.2958984375.40625-1.9208984375.5146484375-.623046875.107421875-1.322265625.162109375-2.095703125.162109375-1.529296875,0-2.7158203125-.427734375-3.5595703125-1.283203125s-1.265625-2.0654296875-1.265625-3.6298828125c0-1.546875.2998046875-2.9619140625.9013671875-4.2451171875.599609375-1.283203125,1.44921875-2.279296875,2.548828125-2.98828125,1.09765625-.708984375,2.34765625-1.0634765625,3.748046875-1.0634765625.650390625,0,1.2744140625.0595703125,1.8720703125.1796875s1.1982421875.32421875,1.8017578125.611328125l-.791015625,1.7841796875c-1.01953125-.50390625-1.998046875-.755859375-2.935546875-.755859375-.92578125,0-1.7666015625.265625-2.5224609375.794921875-.755859375.53125-1.3525390625,1.287109375-1.7880859375,2.267578125-.4375.982421875-.6552734375,2.0732421875-.6552734375,3.2744140625,0,1.072265625.2607421875,1.8837890625.7822265625,2.4345703125s1.2626953125.826171875,2.2236328125.826171875c.638671875,0,1.2685546875-.0966796875,1.8896484375-.2900390625l.703125-3.2607421875h-2.4345703125l.3779296875-1.8017578125Z"/>
        <path d="M1154.072265625,427.4111328125c.36328125,0,.6796875.03515625.94921875.10546875l-.4482421875,1.9248046875c-.31640625-.08203125-.615234375-.123046875-.896484375-.123046875-.73828125,0-1.3974609375.3310546875-1.9775390625.9931640625s-.984375,1.529296875-1.212890625,2.6015625l-.931640625,4.39453125h-2.07421875l2.07421875-9.720703125h1.6171875l-.1845703125,1.8017578125h.0791015625c.486328125-.703125.97265625-1.2080078125,1.458984375-1.5166015625.486328125-.306640625,1.001953125-.4609375,1.546875-.4609375Z"/>
        <path d="M1157.921875,437.4833984375c-.826171875,0-1.4794921875-.296875-1.9599609375-.892578125-.48046875-.59375-.720703125-1.4306640625-.720703125-2.5087890625,0-1.18359375.203125-2.291015625.611328125-3.322265625.40625-1.03125.9677734375-1.8466796875,1.6826171875-2.4482421875.71484375-.599609375,1.5-.900390625,2.35546875-.900390625.568359375,0,1.0576171875.1337890625,1.4677734375.400390625s.7294921875.654296875.9580078125,1.1640625h.087890625l.544921875-1.388671875h1.58203125l-2.07421875,9.720703125h-1.599609375l.1845703125-1.546875h-.052734375c-.92578125,1.1484375-1.9482421875,1.72265625-3.0673828125,1.72265625ZM1158.677734375,435.8134765625c.48046875,0,.9521484375-.2265625,1.4150390625-.681640625.462890625-.453125.84375-1.0615234375,1.142578125-1.8232421875s.4482421875-1.59375.4482421875-2.49609375c0-.515625-.1376953125-.9296875-.4130859375-1.2431640625s-.6357421875-.470703125-1.0810546875-.470703125c-.498046875,0-.966796875.2255859375-1.40625.6767578125s-.791015625,1.0654296875-1.0546875,1.8408203125c-.263671875.77734375-.3955078125,1.5810546875-.3955078125,2.4130859375,0,.59765625.119140625,1.044921875.35546875,1.3408203125.23828125.2958984375.5673828125.443359375.9892578125.443359375Z"/>
        <path d="M1169.9189453125,437.4833984375c-1.060546875,0-1.8486328125-.515625-2.3642578125-1.546875h-.087890625c-.041015625.568359375-.1142578125,1.1103515625-.2197265625,1.6259765625l-.84375,4.0693359375h-2.0478515625l2.970703125-14.044921875h1.6171875l-.1845703125,1.65234375h.0791015625c.919921875-1.21875,1.927734375-1.828125,3.0234375-1.828125.837890625,0,1.494140625.3017578125,1.96875.9052734375s.7119140625,1.44140625.7119140625,2.513671875c0,1.1953125-.205078125,2.3134765625-.615234375,3.3525390625-.41015625,1.041015625-.96875,1.8505859375-1.673828125,2.4306640625-.70703125.580078125-1.484375.8701171875-2.333984375.8701171875ZM1171.087890625,429.0986328125c-.474609375,0-.9462890625.232421875-1.4150390625.69921875-.46875.46484375-.8515625,1.08203125-1.146484375,1.849609375-.296875.767578125-.4443359375,1.5615234375-.4443359375,2.3818359375,0,.5625.1357421875,1.0009765625.4091796875,1.3134765625.271484375.314453125.6572265625.470703125,1.1552734375.470703125s.9638671875-.2294921875,1.3974609375-.689453125.7763671875-1.0751953125,1.0283203125-1.845703125.3779296875-1.5751953125.3779296875-2.4130859375c0-1.177734375-.4541015625-1.7666015625-1.3623046875-1.7666015625Z"/>
        <path d="M1181.5556640625,437.3076171875l1.248046875-5.90625c.10546875-.52734375.158203125-.8994140625.158203125-1.1162109375,0-.791015625-.3779296875-1.1865234375-1.1337890625-1.1865234375-.65625,0-1.2705078125.3662109375-1.8408203125,1.0986328125-.572265625.732421875-.9892578125,1.734375-1.2529296875,3.005859375l-.861328125,4.1044921875h-2.07421875l2.900390625-13.67578125h2.0654296875l-.5009765625,2.302734375c-.158203125.73828125-.3720703125,1.5966796875-.6416015625,2.5751953125l-.1669921875.6591796875h.0703125c.4921875-.62109375.9853515625-1.0693359375,1.4814453125-1.3447265625.494140625-.275390625,1.0146484375-.4130859375,1.5595703125-.4130859375.796875,0,1.4072265625.2275390625,1.8330078125.681640625.423828125.4541015625.63671875,1.1025390625.63671875,1.9462890625,0,.4453125-.0673828125.955078125-.2021484375,1.529296875l-1.2216796875,5.7392578125h-2.056640625Z"/>
        <path d="M1188.490234375,437.3076171875h-2.07421875l2.07421875-9.720703125h2.0654296875l-2.0654296875,9.720703125ZM1188.9033203125,425.1962890625c0-.3984375.1142578125-.720703125.3427734375-.966796875s.55078125-.369140625.966796875-.369140625c.310546875,0,.5625.0771484375.755859375.232421875s.2900390625.3916015625.2900390625.7080078125c0,.416015625-.1171875.744140625-.3515625.984375s-.5419921875.3603515625-.9228515625.3603515625c-.310546875,0-.568359375-.076171875-.7734375-.228515625s-.3076171875-.392578125-.3076171875-.720703125Z"/>
        <path d="M1195.3984375,437.4833984375c-1.1484375,0-2.0390625-.310546875-2.671875-.931640625s-.94921875-1.5087890625-.94921875-2.6630859375c0-1.212890625.21484375-2.3154296875.646484375-3.3095703125.4296875-.9921875,1.03515625-1.7685546875,1.814453125-2.328125s1.6640625-.83984375,2.654296875-.83984375c.9609375,0,1.8310546875.1787109375,2.6103515625.5361328125l-.615234375,1.6171875c-.71484375-.310546875-1.3623046875-.4658203125-1.9423828125-.4658203125-.87890625,0-1.611328125.4501953125-2.197265625,1.349609375s-.87890625,2.0107421875-.87890625,3.3349609375c0,.650390625.1640625,1.1513671875.4921875,1.5029296875s.7822265625.52734375,1.3623046875.52734375c.43359375,0,.8388671875-.064453125,1.2177734375-.193359375.376953125-.12890625.7568359375-.287109375,1.1376953125-.474609375v1.7138671875c-.8203125.416015625-1.7138671875.6240234375-2.6806640625.6240234375Z"/>
        <path d="M1202.8427734375,437.4833984375c-.826171875,0-1.4794921875-.296875-1.9599609375-.892578125-.48046875-.59375-.720703125-1.4306640625-.720703125-2.5087890625,0-1.18359375.203125-2.291015625.611328125-3.322265625.40625-1.03125.9677734375-1.8466796875,1.6826171875-2.4482421875.71484375-.599609375,1.5-.900390625,2.35546875-.900390625.568359375,0,1.0576171875.1337890625,1.4677734375.400390625s.7294921875.654296875.9580078125,1.1640625h.087890625l.544921875-1.388671875h1.58203125l-2.07421875,9.720703125h-1.599609375l.1845703125-1.546875h-.052734375c-.92578125,1.1484375-1.9482421875,1.72265625-3.0673828125,1.72265625ZM1203.5986328125,435.8134765625c.48046875,0,.9521484375-.2265625,1.4150390625-.681640625.462890625-.453125.84375-1.0615234375,1.142578125-1.8232421875s.4482421875-1.59375.4482421875-2.49609375c0-.515625-.1376953125-.9296875-.4130859375-1.2431640625s-.6357421875-.470703125-1.0810546875-.470703125c-.498046875,0-.966796875.2255859375-1.40625.6767578125s-.791015625,1.0654296875-1.0546875,1.8408203125c-.263671875.77734375-.3955078125,1.5810546875-.3955078125,2.4130859375,0,.59765625.119140625,1.044921875.35546875,1.3408203125.23828125.2958984375.5673828125.443359375.9892578125.443359375Z"/>
        <path d="M1212.2294921875,437.3076171875h-2.056640625l2.900390625-13.67578125h2.0654296875l-2.9091796875,13.67578125Z"/>
        <path d="M1218.7158203125,441.6318359375c-.52734375,0-.9638671875-.0673828125-1.3095703125-.2021484375v-1.669921875c.375.1171875.708984375.17578125,1.001953125.17578125.78515625,0,1.3037109375-.6005859375,1.5556640625-1.8017578125l1.9072265625-8.982421875h-1.5732421875l.1845703125-.931640625,1.705078125-.66796875.1845703125-.80859375c.2578125-1.16015625.6513671875-1.9853515625,1.181640625-2.474609375s1.2822265625-.7333984375,2.2548828125-.7333984375c.673828125,0,1.2919921875.1259765625,1.8544921875.3779296875l-.5361328125,1.546875c-.43359375-.1640625-.83203125-.24609375-1.1953125-.24609375-.404296875,0-.728515625.1259765625-.9716796875.3779296875s-.4287109375.6650390625-.5576171875,1.2392578125l-.158203125.755859375h2.0126953125l-.3251953125,1.564453125h-2.0126953125l-1.9599609375,9.2548828125c-.234375,1.107421875-.6181640625,1.921875-1.1513671875,2.443359375s-1.23046875.7822265625-2.091796875.7822265625Z"/>
        <path d="M1235.037109375,431.2255859375c0,1.18359375-.2138671875,2.2607421875-.6416015625,3.23046875s-1.015625,1.712890625-1.76171875,2.232421875c-.748046875.517578125-1.607421875.77734375-2.580078125.77734375-1.125,0-2.0185546875-.3349609375-2.6806640625-1.005859375s-.9931640625-1.583984375-.9931640625-2.73828125c0-1.166015625.208984375-2.2353515625.62890625-3.2080078125.41796875-.97265625,1.005859375-1.7294921875,1.76171875-2.2724609375.755859375-.541015625,1.62890625-.8125,2.619140625-.8125,1.142578125,0,2.0361328125.33984375,2.6806640625,1.01953125s.966796875,1.60546875.966796875,2.77734375ZM1232.9541015625,431.1376953125c0-.626953125-.1435546875-1.1171875-.4306640625-1.47265625-.287109375-.353515625-.697265625-.53125-1.23046875-.53125-.544921875,0-1.0322265625.2099609375-1.4638671875.62890625-.4296875.4189453125-.763671875.9873046875-1.001953125,1.705078125-.236328125.7177734375-.35546875,1.4833984375-.35546875,2.2978515625,0,.650390625.14453125,1.1484375.435546875,1.494140625.2890625.345703125.71875.5185546875,1.287109375.5185546875.52734375,0,1.001953125-.19921875,1.423828125-.59765625s.75-.9560546875.984375-1.673828125.3515625-1.5078125.3515625-2.369140625Z"/>
        <path d="M1242.876953125,427.4111328125c.36328125,0,.6796875.03515625.94921875.10546875l-.4482421875,1.9248046875c-.31640625-.08203125-.615234375-.123046875-.896484375-.123046875-.73828125,0-1.3974609375.3310546875-1.9775390625.9931640625s-.984375,1.529296875-1.212890625,2.6015625l-.931640625,4.39453125h-2.07421875l2.07421875-9.720703125h1.6171875l-.1845703125,1.8017578125h.0791015625c.486328125-.703125.97265625-1.2080078125,1.458984375-1.5166015625.486328125-.306640625,1.001953125-.4609375,1.546875-.4609375Z"/>
        <path d="M1250.3125,427.4111328125c1.2890625,0,2.033203125.6884765625,2.232421875,2.0654296875h.0703125c.439453125-.6796875.9384765625-1.193359375,1.4990234375-1.5419921875.55859375-.3486328125,1.140625-.5234375,1.744140625-.5234375.779296875,0,1.3720703125.224609375,1.779296875.671875.4072265625.44921875.611328125,1.080078125.611328125,1.89453125,0,.375-.064453125.9052734375-.193359375,1.5908203125l-1.23046875,5.7392578125h-2.0654296875l1.2568359375-5.90625c.111328125-.556640625.1669921875-.9462890625.1669921875-1.1689453125,0-.755859375-.3544921875-1.1337890625-1.0634765625-1.1337890625-.6328125,0-1.2236328125.36328125-1.771484375,1.08984375s-.947265625,1.6904296875-1.19921875,2.8916015625l-.8876953125,4.2275390625h-2.0654296875l1.2568359375-5.90625c.099609375-.48046875.1494140625-.8525390625.1494140625-1.1162109375,0-.791015625-.3427734375-1.1865234375-1.0283203125-1.1865234375-.64453125,0-1.2412109375.3720703125-1.7880859375,1.1162109375-.548828125.744140625-.9541015625,1.734375-1.2177734375,2.970703125l-.861328125,4.1220703125h-2.07421875l2.07421875-9.720703125h1.6171875l-.1845703125,1.8017578125h.0791015625c.8671875-1.318359375,1.8984375-1.9775390625,3.09375-1.9775390625Z"/>
        <path d="M1262.7138671875,437.4833984375c-.826171875,0-1.4794921875-.296875-1.9599609375-.892578125-.48046875-.59375-.720703125-1.4306640625-.720703125-2.5087890625,0-1.18359375.203125-2.291015625.611328125-3.322265625.40625-1.03125.9677734375-1.8466796875,1.6826171875-2.4482421875.71484375-.599609375,1.5-.900390625,2.35546875-.900390625.568359375,0,1.0576171875.1337890625,1.4677734375.400390625s.7294921875.654296875.9580078125,1.1640625h.087890625l.544921875-1.388671875h1.58203125l-2.07421875,9.720703125h-1.599609375l.1845703125-1.546875h-.052734375c-.92578125,1.1484375-1.9482421875,1.72265625-3.0673828125,1.72265625ZM1263.4697265625,435.8134765625c.48046875,0,.9521484375-.2265625,1.4150390625-.681640625.462890625-.453125.84375-1.0615234375,1.142578125-1.8232421875s.4482421875-1.59375.4482421875-2.49609375c0-.515625-.1376953125-.9296875-.4130859375-1.2431640625s-.6357421875-.470703125-1.0810546875-.470703125c-.498046875,0-.966796875.2255859375-1.40625.6767578125s-.791015625,1.0654296875-1.0546875,1.8408203125c-.263671875.77734375-.3955078125,1.5810546875-.3955078125,2.4130859375,0,.59765625.119140625,1.044921875.35546875,1.3408203125.23828125.2958984375.5673828125.443359375.9892578125.443359375Z"/>
        <path d="M1273.6298828125,435.8134765625c.3984375,0,.8408203125-.0908203125,1.3271484375-.2724609375v1.564453125c-.205078125.099609375-.4833984375.1875-.8349609375.263671875s-.703125.1142578125-1.0546875.1142578125c-1.60546875,0-2.408203125-.7236328125-2.408203125-2.1708984375,0-.333984375.046875-.7177734375.140625-1.1513671875l1.0634765625-5.009765625h-1.423828125l.1845703125-.966796875,1.669921875-.720703125,1.1337890625-2.0390625h1.283203125l-.45703125,2.162109375h2.4521484375l-.3427734375,1.564453125h-2.4345703125l-1.072265625,5.02734375c-.076171875.322265625-.1142578125.591796875-.1142578125.80859375,0,.251953125.0732421875.453125.2197265625.6015625.146484375.150390625.369140625.224609375.66796875.224609375Z"/>
        <path d="M1283.11328125,434.3193359375c0,1.013671875-.345703125,1.794921875-1.037109375,2.341796875-.69140625.548828125-1.65234375.822265625-2.8828125.822265625-1.11328125,0-2.056640625-.1962890625-2.830078125-.5888671875v-1.7841796875c.896484375.52734375,1.810546875.791015625,2.7421875.791015625.568359375,0,1.0283203125-.1171875,1.3798828125-.3515625s.52734375-.5537109375.52734375-.9580078125c0-.298828125-.1005859375-.5546875-.3037109375-.7685546875-.201171875-.2138671875-.6162109375-.5-1.2431640625-.857421875-.732421875-.392578125-1.25-.7919921875-1.5517578125-1.19921875s-.4521484375-.8896484375-.4521484375-1.4462890625c0-.908203125.3134765625-1.6201171875.9404296875-2.1357421875s1.4736328125-.7734375,2.5400390625-.7734375c1.1484375,0,2.162109375.24609375,3.041015625.73828125l-.66796875,1.546875c-.8203125-.4453125-1.599609375-.66796875-2.337890625-.66796875-.427734375,0-.775390625.0966796875-1.0419921875.2900390625s-.3994140625.462890625-.3994140625.80859375c0,.263671875.0966796875.498046875.2900390625.703125s.5888671875.46875,1.1865234375.791015625c.615234375.345703125,1.0517578125.6416015625,1.3095703125.8876953125s.4541015625.513671875.5888671875.8046875c.134765625.2890625.2021484375.625.2021484375,1.005859375Z"/>
        <path d="M1124.7783203125,468.908203125h-8.1650390625l.31640625-1.58203125,4.1396484375-3.708984375c1.03125-.931640625,1.7294921875-1.6083984375,2.0966796875-2.0302734375.365234375-.421875.630859375-.8134765625.794921875-1.1728515625.1640625-.361328125.24609375-.74609375.24609375-1.15625,0-.498046875-.14453125-.892578125-.435546875-1.181640625-.2890625-.291015625-.6982421875-.435546875-1.2255859375-.435546875-.41015625,0-.8173828125.087890625-1.2216796875.263671875s-.90234375.4951171875-1.494140625.9580078125l-1.0107421875-1.40625c.703125-.568359375,1.3798828125-.9736328125,2.0302734375-1.2177734375.650390625-.2421875,1.318359375-.3642578125,2.00390625-.3642578125,1.060546875,0,1.904296875.2724609375,2.53125.8173828125s.9404296875,1.2802734375.9404296875,2.2060546875c0,.6328125-.1142578125,1.2216796875-.3427734375,1.7666015625s-.5888671875,1.103515625-1.0810546875,1.673828125c-.4921875.572265625-1.32421875,1.3583984375-2.49609375,2.3603515625l-2.7333984375,2.3203125v.0703125h5.466796875l-.3603515625,1.8193359375Z"/>
        <path d="M1126.9755859375,468.08203125c0-.486328125.1376953125-.875.4130859375-1.1640625.275390625-.291015625.6591796875-.435546875,1.1513671875-.435546875.328125,0,.58984375.091796875.7861328125.27734375.1962890625.18359375.294921875.455078125.294921875.8125,0,.45703125-.1396484375.8369140625-.41796875,1.138671875-.2783203125.30078125-.642578125.4521484375-1.09375.4521484375-.38671875,0-.671875-.1044921875-.857421875-.3115234375-.18359375-.2080078125-.2763671875-.46484375-.2763671875-.76953125Z"/>
        <path d="M1142.9453125,465.146484375c0,1.23046875-.423828125,2.1943359375-1.26953125,2.8916015625-.84765625.697265625-2.0146484375,1.0458984375-3.5029296875,1.0458984375-1.23046875,0-2.25-.2197265625-3.05859375-.6591796875v-1.96875c1.013671875.568359375,2.0390625.8525390625,3.076171875.8525390625.802734375,0,1.435546875-.171875,1.8984375-.513671875.462890625-.34375.6943359375-.8193359375.6943359375-1.4287109375,0-.404296875-.1201171875-.7626953125-.3603515625-1.0771484375-.240234375-.3125-.744140625-.712890625-1.51171875-1.19921875-.615234375-.392578125-1.0693359375-.75-1.3623046875-1.072265625s-.517578125-.6748046875-.671875-1.05859375c-.15625-.3837890625-.2333984375-.8076171875-.2333984375-1.2705078125,0-.75.1806640625-1.4150390625.5400390625-1.9951171875.361328125-.580078125.87109375-1.0283203125,1.529296875-1.3447265625.66015625-.31640625,1.40234375-.474609375,2.228515625-.474609375,1.201171875,0,2.3173828125.26953125,3.3486328125.80859375l-.755859375,1.6787109375c-.943359375-.45703125-1.8076171875-.685546875-2.5927734375-.685546875-.638671875,0-1.1513671875.171875-1.5380859375.513671875-.38671875.34375-.580078125.7900390625-.580078125,1.3408203125,0,.275390625.0439453125.517578125.1318359375.7255859375s.224609375.4013671875.408203125.580078125c.185546875.1787109375.5791015625.4580078125,1.1826171875.8388671875.908203125.568359375,1.53515625,1.1181640625,1.880859375,1.6474609375.345703125.53125.5185546875,1.138671875.5185546875,1.82421875Z"/>
        <path d="M1148.5087890625,459.1875l-1.1337890625,5.361328125c-.181640625.826171875-.2724609375,1.3916015625-.2724609375,1.6962890625,0,.779296875.3720703125,1.1689453125,1.1162109375,1.1689453125.421875,0,.8408203125-.1669921875,1.2568359375-.5009765625s.78515625-.8095703125,1.107421875-1.4287109375c.322265625-.6171875.5712890625-1.3427734375.7470703125-2.1748046875l.8701171875-4.1220703125h2.0478515625l-2.0478515625,9.720703125h-1.6259765625l.1845703125-1.8017578125h-.0703125c-.48046875.6796875-.9814453125,1.1796875-1.5029296875,1.4990234375-.521484375.318359375-1.083984375.478515625-1.6875.478515625-.78515625,0-1.3916015625-.22265625-1.8193359375-.66796875s-.6416015625-1.083984375-.6416015625-1.916015625c0-.369140625.03515625-.734375.10546875-1.09375.0703125-.361328125.140625-.72265625.2109375-1.0859375l1.0810546875-5.1328125h2.07421875Z"/>
        <path d="M1161.771484375,459.01171875c1.2890625,0,2.033203125.6884765625,2.232421875,2.0654296875h.0703125c.439453125-.6796875.9384765625-1.193359375,1.4990234375-1.5419921875.55859375-.3486328125,1.140625-.5234375,1.744140625-.5234375.779296875,0,1.3720703125.224609375,1.779296875.671875.4072265625.44921875.611328125,1.080078125.611328125,1.89453125,0,.375-.064453125.9052734375-.193359375,1.5908203125l-1.23046875,5.7392578125h-2.0654296875l1.2568359375-5.90625c.111328125-.556640625.1669921875-.9462890625.1669921875-1.1689453125,0-.755859375-.3544921875-1.1337890625-1.0634765625-1.1337890625-.6328125,0-1.2236328125.36328125-1.771484375,1.08984375s-.947265625,1.6904296875-1.19921875,2.8916015625l-.8876953125,4.2275390625h-2.0654296875l1.2568359375-5.90625c.099609375-.48046875.1494140625-.8525390625.1494140625-1.1162109375,0-.791015625-.3427734375-1.1865234375-1.0283203125-1.1865234375-.64453125,0-1.2412109375.3720703125-1.7880859375,1.1162109375-.548828125.744140625-.9541015625,1.734375-1.2177734375,2.970703125l-.861328125,4.1220703125h-2.07421875l2.07421875-9.720703125h1.6171875l-.1845703125,1.8017578125h.0791015625c.8671875-1.318359375,1.8984375-1.9775390625,3.09375-1.9775390625Z"/>
        <path d="M1177.7587890625,459.01171875c1.2890625,0,2.033203125.6884765625,2.232421875,2.0654296875h.0703125c.439453125-.6796875.9384765625-1.193359375,1.4990234375-1.5419921875.55859375-.3486328125,1.140625-.5234375,1.744140625-.5234375.779296875,0,1.3720703125.224609375,1.779296875.671875.4072265625.44921875.611328125,1.080078125.611328125,1.89453125,0,.375-.064453125.9052734375-.193359375,1.5908203125l-1.23046875,5.7392578125h-2.0654296875l1.2568359375-5.90625c.111328125-.556640625.1669921875-.9462890625.1669921875-1.1689453125,0-.755859375-.3544921875-1.1337890625-1.0634765625-1.1337890625-.6328125,0-1.2236328125.36328125-1.771484375,1.08984375s-.947265625,1.6904296875-1.19921875,2.8916015625l-.8876953125,4.2275390625h-2.0654296875l1.2568359375-5.90625c.099609375-.48046875.1494140625-.8525390625.1494140625-1.1162109375,0-.791015625-.3427734375-1.1865234375-1.0283203125-1.1865234375-.64453125,0-1.2412109375.3720703125-1.7880859375,1.1162109375-.548828125.744140625-.9541015625,1.734375-1.2177734375,2.970703125l-.861328125,4.1220703125h-2.07421875l2.07421875-9.720703125h1.6171875l-.1845703125,1.8017578125h.0791015625c.8671875-1.318359375,1.8984375-1.9775390625,3.09375-1.9775390625Z"/>
        <path d="M1190.16015625,469.083984375c-.826171875,0-1.4794921875-.296875-1.9599609375-.892578125-.48046875-.59375-.720703125-1.4306640625-.720703125-2.5087890625,0-1.18359375.203125-2.291015625.611328125-3.322265625.40625-1.03125.9677734375-1.8466796875,1.6826171875-2.4482421875.71484375-.599609375,1.5-.900390625,2.35546875-.900390625.568359375,0,1.0576171875.1337890625,1.4677734375.400390625s.7294921875.654296875.9580078125,1.1640625h.087890625l.544921875-1.388671875h1.58203125l-2.07421875,9.720703125h-1.599609375l.1845703125-1.546875h-.052734375c-.92578125,1.1484375-1.9482421875,1.72265625-3.0673828125,1.72265625ZM1190.916015625,467.4140625c.48046875,0,.9521484375-.2265625,1.4150390625-.681640625.462890625-.453125.84375-1.0615234375,1.142578125-1.8232421875s.4482421875-1.59375.4482421875-2.49609375c0-.515625-.1376953125-.9296875-.4130859375-1.2431640625s-.6357421875-.470703125-1.0810546875-.470703125c-.498046875,0-.966796875.2255859375-1.40625.6767578125s-.791015625,1.0654296875-1.0546875,1.8408203125c-.263671875.77734375-.3955078125,1.5810546875-.3955078125,2.4130859375,0,.59765625.119140625,1.044921875.35546875,1.3408203125.23828125.2958984375.5673828125.443359375.9892578125.443359375Z"/>
        <path d="M1204.08203125,459.01171875c.36328125,0,.6796875.03515625.94921875.10546875l-.4482421875,1.9248046875c-.31640625-.08203125-.615234375-.123046875-.896484375-.123046875-.73828125,0-1.3974609375.3310546875-1.9775390625.9931640625s-.984375,1.529296875-1.212890625,2.6015625l-.931640625,4.39453125h-2.07421875l2.07421875-9.720703125h1.6171875l-.1845703125,1.8017578125h.0791015625c.486328125-.703125.97265625-1.2080078125,1.458984375-1.5166015625.486328125-.306640625,1.001953125-.4609375,1.546875-.4609375Z"/>
        <path d="M1205.3037109375,459.1875h2.0390625l.5537109375,4.6669921875c.052734375.36328125.099609375.8740234375.140625,1.5341796875.041015625.658203125.0615234375,1.1904296875.0615234375,1.5947265625h.052734375c.50390625-1.259765625.8994140625-2.1767578125,1.1865234375-2.7509765625l2.5751953125-5.044921875h2.232421875l-6.046875,11.25c-.52734375.966796875-1.1015625,1.673828125-1.72265625,2.123046875-.62109375.447265625-1.3505859375.671875-2.1884765625.671875-.4453125,0-.8642578125-.0556640625-1.2568359375-.1669921875v-1.65234375c.439453125.09375.8056640625.140625,1.0986328125.140625.43359375,0,.826171875-.1279296875,1.177734375-.3818359375.3515625-.255859375.71484375-.7109375,1.08984375-1.3671875l.4482421875-.80859375-1.44140625-9.80859375Z"/>
        <path d="M1135.45703125,488.08203125c0-2.009765625.365234375-3.86328125,1.09375-5.55859375.73046875-1.697265625,1.841796875-3.318359375,3.3359375-4.865234375h1.8369140625c-2.91796875,3.2109375-4.376953125,6.697265625-4.376953125,10.458984375,0,1.927734375.3369140625,3.673828125,1.0107421875,5.23828125h-1.6083984375c-.861328125-1.529296875-1.2919921875-3.287109375-1.2919921875-5.2734375Z"/>
        <path d="M1147.65625,486.939453125h-4.2626953125l-1.8369140625,3.568359375h-2.232421875l6.8818359375-12.8671875h2.408203125l1.458984375,12.8671875h-2.056640625l-.3603515625-3.568359375ZM1147.515625,485.111328125c-.234375-2.4375-.3681640625-3.912109375-.3994140625-4.42578125-.033203125-.51171875-.048828125-.9208984375-.048828125-1.2255859375-.322265625.814453125-.73828125,1.7138671875-1.248046875,2.6982421875l-1.51171875,2.953125h3.2080078125Z"/>
        <path d="M1156.1025390625,490.68359375c-.57421875,0-1.068359375-.1318359375-1.48046875-.3955078125-.4140625-.263671875-.7373046875-.6474609375-.9716796875-1.1513671875h-.087890625l-.5625,1.37109375h-1.564453125l2.900390625-13.67578125h2.0654296875l-.6240234375,2.9267578125c-.076171875.369140625-.1875.828125-.333984375,1.3759765625s-.263671875.958984375-.3515625,1.234375h.0703125c.52734375-.662109375,1.0107421875-1.12109375,1.4501953125-1.375.439453125-.255859375.9111328125-.3828125,1.4150390625-.3828125.849609375,0,1.51171875.302734375,1.986328125.91015625.474609375.60546875.7119140625,1.4423828125.7119140625,2.5087890625,0,1.18359375-.2041015625,2.2958984375-.611328125,3.3349609375-.4072265625,1.041015625-.96484375,1.853515625-1.673828125,2.439453125s-1.48828125.87890625-2.337890625.87890625ZM1157.271484375,482.298828125c-.474609375,0-.94921875.234375-1.423828125.703125s-.8564453125,1.0859375-1.1474609375,1.849609375c-.2890625.765625-.4345703125,1.5576171875-.4345703125,2.3779296875,0,.5625.1357421875,1.0009765625.4091796875,1.3134765625.271484375.314453125.6572265625.470703125,1.1552734375.470703125s.9638671875-.2294921875,1.3974609375-.689453125.7763671875-1.0751953125,1.0283203125-1.845703125.3779296875-1.5751953125.3779296875-2.4130859375c0-1.177734375-.4541015625-1.7666015625-1.3623046875-1.7666015625Z"/>
        <path d="M1166.0166015625,480.787109375l-1.1337890625,5.361328125c-.181640625.826171875-.2724609375,1.3916015625-.2724609375,1.6962890625,0,.779296875.3720703125,1.1689453125,1.1162109375,1.1689453125.421875,0,.8408203125-.1669921875,1.2568359375-.5009765625s.78515625-.8095703125,1.107421875-1.4287109375c.322265625-.6171875.5712890625-1.3427734375.7470703125-2.1748046875l.8701171875-4.1220703125h2.0478515625l-2.0478515625,9.720703125h-1.6259765625l.1845703125-1.8017578125h-.0703125c-.48046875.6796875-.9814453125,1.1796875-1.5029296875,1.4990234375-.521484375.318359375-1.083984375.478515625-1.6875.478515625-.78515625,0-1.3916015625-.22265625-1.8193359375-.66796875s-.6416015625-1.083984375-.6416015625-1.916015625c0-.369140625.03515625-.734375.10546875-1.09375.0703125-.361328125.140625-.72265625.2109375-1.0859375l1.0810546875-5.1328125h2.07421875Z"/>
        <path d="M1178.3564453125,490.5078125l1.248046875-5.90625c.10546875-.52734375.158203125-.9111328125.158203125-1.1513671875,0-.767578125-.3779296875-1.1513671875-1.1337890625-1.1513671875-.421875,0-.837890625.1669921875-1.248046875.5009765625s-.779296875.81640625-1.107421875,1.4462890625-.57421875,1.3427734375-.73828125,2.1396484375l-.861328125,4.1220703125h-2.07421875l2.07421875-9.720703125h1.6171875l-.1845703125,1.8017578125h.0791015625c.486328125-.69140625.9873046875-1.193359375,1.5029296875-1.5068359375s1.0751953125-.470703125,1.6787109375-.470703125c.78515625,0,1.3935546875.22265625,1.8232421875.66796875.431640625.4453125.646484375,1.078125.646484375,1.8984375,0,.404296875-.0673828125.9345703125-.2021484375,1.5908203125l-1.2041015625,5.7392578125h-2.07421875Z"/>
        <path d="M1188.279296875,480.611328125c1.048828125,0,1.833984375.521484375,2.35546875,1.564453125h.0703125c.076171875-.85546875.1845703125-1.587890625.3251953125-2.197265625l.66796875-3.146484375h2.0478515625l-2.900390625,13.67578125h-1.6171875l.1669921875-1.546875h-.0615234375c-.515625.62109375-1.013671875,1.0634765625-1.494140625,1.3271484375s-.990234375.3955078125-1.529296875.3955078125c-.837890625,0-1.494140625-.296875-1.96875-.892578125-.474609375-.59375-.7119140625-1.4365234375-.7119140625-2.5263671875,0-1.201171875.208984375-2.3232421875.62890625-3.3662109375.41796875-1.04296875.9794921875-1.8515625,1.6826171875-2.42578125s1.482421875-.861328125,2.337890625-.861328125ZM1187.1015625,489.013671875c.48046875,0,.9560546875-.240234375,1.4287109375-.720703125.470703125-.48046875.8486328125-1.107421875,1.1328125-1.880859375s.4267578125-1.5556640625.4267578125-2.3466796875c0-.533203125-.1279296875-.9609375-.3818359375-1.283203125-.255859375-.322265625-.6435546875-.4833984375-1.1650390625-.4833984375-.498046875,0-.9638671875.2255859375-1.3974609375.6767578125s-.779296875,1.0693359375-1.037109375,1.8544921875-.38671875,1.5849609375-.38671875,2.3994140625c0,1.189453125.4599609375,1.7841796875,1.3798828125,1.7841796875Z"/>
        <path d="M1196.83984375,490.68359375c-.826171875,0-1.4794921875-.296875-1.9599609375-.892578125-.48046875-.59375-.720703125-1.4306640625-.720703125-2.5087890625,0-1.18359375.203125-2.291015625.611328125-3.322265625.40625-1.03125.9677734375-1.8466796875,1.6826171875-2.4482421875.71484375-.599609375,1.5-.900390625,2.35546875-.900390625.568359375,0,1.0576171875.1337890625,1.4677734375.400390625s.7294921875.654296875.9580078125,1.1640625h.087890625l.544921875-1.388671875h1.58203125l-2.07421875,9.720703125h-1.599609375l.1845703125-1.546875h-.052734375c-.92578125,1.1484375-1.9482421875,1.72265625-3.0673828125,1.72265625ZM1197.595703125,489.013671875c.48046875,0,.9521484375-.2265625,1.4150390625-.681640625.462890625-.453125.84375-1.0615234375,1.142578125-1.8232421875s.4482421875-1.59375.4482421875-2.49609375c0-.515625-.1376953125-.9296875-.4130859375-1.2431640625s-.6357421875-.470703125-1.0810546875-.470703125c-.498046875,0-.966796875.2255859375-1.40625.6767578125s-.791015625,1.0654296875-1.0546875,1.8408203125c-.263671875.77734375-.3955078125,1.5810546875-.3955078125,2.4130859375,0,.59765625.119140625,1.044921875.35546875,1.3408203125.23828125.2958984375.5673828125.443359375.9892578125.443359375Z"/>
        <path d="M1209.9267578125,490.5078125l1.248046875-5.90625c.10546875-.52734375.158203125-.9111328125.158203125-1.1513671875,0-.767578125-.3779296875-1.1513671875-1.1337890625-1.1513671875-.421875,0-.837890625.1669921875-1.248046875.5009765625s-.779296875.81640625-1.107421875,1.4462890625-.57421875,1.3427734375-.73828125,2.1396484375l-.861328125,4.1220703125h-2.07421875l2.07421875-9.720703125h1.6171875l-.1845703125,1.8017578125h.0791015625c.486328125-.69140625.9873046875-1.193359375,1.5029296875-1.5068359375s1.0751953125-.470703125,1.6787109375-.470703125c.78515625,0,1.3935546875.22265625,1.8232421875.66796875.431640625.4453125.646484375,1.078125.646484375,1.8984375,0,.404296875-.0673828125.9345703125-.2021484375,1.5908203125l-1.2041015625,5.7392578125h-2.07421875Z"/>
        <path d="M1218.8212890625,490.68359375c-1.1484375,0-2.0390625-.310546875-2.671875-.931640625s-.94921875-1.5087890625-.94921875-2.6630859375c0-1.212890625.21484375-2.3154296875.646484375-3.3095703125.4296875-.9921875,1.03515625-1.7685546875,1.814453125-2.328125s1.6640625-.83984375,2.654296875-.83984375c.9609375,0,1.8310546875.1787109375,2.6103515625.5361328125l-.615234375,1.6171875c-.71484375-.310546875-1.3623046875-.4658203125-1.9423828125-.4658203125-.87890625,0-1.611328125.4501953125-2.197265625,1.349609375s-.87890625,2.0107421875-.87890625,3.3349609375c0,.650390625.1640625,1.1513671875.4921875,1.5029296875s.7822265625.52734375,1.3623046875.52734375c.43359375,0,.8388671875-.064453125,1.2177734375-.193359375.376953125-.12890625.7568359375-.287109375,1.1376953125-.474609375v1.7138671875c-.8203125.416015625-1.7138671875.6240234375-2.6806640625.6240234375Z"/>
        <path d="M1227.2587890625,490.68359375c-1.154296875,0-2.0556640625-.3251953125-2.703125-.9755859375s-.970703125-1.55859375-.970703125-2.724609375c0-1.16015625.2265625-2.2392578125.681640625-3.2392578125.453125-.998046875,1.068359375-1.7705078125,1.845703125-2.3154296875.775390625-.544921875,1.64453125-.8173828125,2.60546875-.8173828125.943359375,0,1.6767578125.212890625,2.201171875.63671875.5244140625.42578125.787109375,1.02734375.787109375,1.806640625,0,1.06640625-.48828125,1.900390625-1.462890625,2.5-.9765625.6015625-2.3662109375.9013671875-4.1708984375.9013671875h-.3779296875l-.017578125.2724609375v.2548828125c0,.650390625.1650390625,1.16015625.49609375,1.529296875s.8251953125.5537109375,1.4814453125.5537109375c.421875,0,.8408203125-.0556640625,1.2568359375-.1669921875s.908203125-.3017578125,1.4765625-.5712890625v1.6435546875c-.5625.2578125-1.080078125.44140625-1.55078125.5498046875-.47265625.107421875-.998046875.162109375-1.578125.162109375ZM1228.5947265625,482.193359375c-.5625,0-1.091796875.251953125-1.5859375.755859375-.49609375.50390625-.8515625,1.1689453125-1.068359375,1.9951171875h.2548828125c1.1015625,0,1.962890625-.15625,2.583984375-.4697265625s.931640625-.7578125.931640625-1.33203125c0-.298828125-.09375-.53125-.28125-.69921875-.1875-.166015625-.4658203125-.25-.8349609375-.25Z"/>
        <path d="M1237.1201171875,482.94921875c0,2.00390625-.3603515625,3.8486328125-1.0810546875,5.533203125s-1.8369140625,3.30859375-3.3486328125,4.873046875h-1.8369140625c2.91796875-3.2109375,4.376953125-6.697265625,4.376953125-10.458984375,0-1.916015625-.3369140625-3.662109375-1.0107421875-5.23828125h1.6083984375c.861328125,1.552734375,1.2919921875,3.31640625,1.2919921875,5.291015625Z"/>
        <path d="M1246.005859375,490.68359375c-.826171875,0-1.4794921875-.296875-1.9599609375-.892578125-.48046875-.59375-.720703125-1.4306640625-.720703125-2.5087890625,0-1.18359375.203125-2.291015625.611328125-3.322265625.40625-1.03125.9677734375-1.8466796875,1.6826171875-2.4482421875.71484375-.599609375,1.5-.900390625,2.35546875-.900390625.568359375,0,1.0576171875.1337890625,1.4677734375.400390625s.7294921875.654296875.9580078125,1.1640625h.087890625l.544921875-1.388671875h1.58203125l-2.07421875,9.720703125h-1.599609375l.1845703125-1.546875h-.052734375c-.92578125,1.1484375-1.9482421875,1.72265625-3.0673828125,1.72265625ZM1246.76171875,489.013671875c.48046875,0,.9521484375-.2265625,1.4150390625-.681640625.462890625-.453125.84375-1.0615234375,1.142578125-1.8232421875s.4482421875-1.59375.4482421875-2.49609375c0-.515625-.1376953125-.9296875-.4130859375-1.2431640625s-.6357421875-.470703125-1.0810546875-.470703125c-.498046875,0-.966796875.2255859375-1.40625.6767578125s-.791015625,1.0654296875-1.0546875,1.8408203125c-.263671875.77734375-.3955078125,1.5810546875-.3955078125,2.4130859375,0,.59765625.119140625,1.044921875.35546875,1.3408203125.23828125.2958984375.5673828125.443359375.9892578125.443359375Z"/>
        <path d="M1256.921875,489.013671875c.3984375,0,.8408203125-.0908203125,1.3271484375-.2724609375v1.564453125c-.205078125.099609375-.4833984375.1875-.8349609375.263671875s-.703125.1142578125-1.0546875.1142578125c-1.60546875,0-2.408203125-.7236328125-2.408203125-2.1708984375,0-.333984375.046875-.7177734375.140625-1.1513671875l1.0634765625-5.009765625h-1.423828125l.1845703125-.966796875,1.669921875-.720703125,1.1337890625-2.0390625h1.283203125l-.45703125,2.162109375h2.4521484375l-.3427734375,1.564453125h-2.4345703125l-1.072265625,5.02734375c-.076171875.322265625-.1142578125.591796875-.1142578125.80859375,0,.251953125.0732421875.453125.2197265625.6015625.146484375.150390625.369140625.224609375.66796875.224609375Z"/>
        <path d="M1140.94140625,512.107421875l1.248046875-5.90625c.10546875-.52734375.158203125-.8994140625.158203125-1.1162109375,0-.791015625-.3779296875-1.1865234375-1.1337890625-1.1865234375-.65625,0-1.2705078125.3662109375-1.8408203125,1.0986328125-.572265625.732421875-.9892578125,1.734375-1.2529296875,3.005859375l-.861328125,4.1044921875h-2.07421875l2.900390625-13.67578125h2.0654296875l-.5009765625,2.302734375c-.158203125.73828125-.3720703125,1.5966796875-.6416015625,2.5751953125l-.1669921875.6591796875h.0703125c.4921875-.62109375.9853515625-1.0693359375,1.4814453125-1.3447265625.494140625-.275390625,1.0146484375-.4130859375,1.5595703125-.4130859375.796875,0,1.4072265625.2275390625,1.8330078125.681640625.423828125.4541015625.63671875,1.1025390625.63671875,1.9462890625,0,.4453125-.0673828125.955078125-.2021484375,1.529296875l-1.2216796875,5.7392578125h-2.056640625Z"/>
        <path d="M1147.8759765625,512.107421875h-2.07421875l2.07421875-9.720703125h2.0654296875l-2.0654296875,9.720703125ZM1148.2890625,499.99609375c0-.3984375.1142578125-.720703125.3427734375-.966796875s.55078125-.369140625.966796875-.369140625c.310546875,0,.5625.078125.755859375.232421875.193359375.15625.2900390625.3916015625.2900390625.7080078125,0,.416015625-.1171875.744140625-.3515625.984375s-.5419921875.3603515625-.9228515625.3603515625c-.310546875,0-.568359375-.076171875-.7734375-.228515625s-.3076171875-.392578125-.3076171875-.720703125Z"/>
        <path d="M1160.3828125,502.38671875l-.2724609375,1.2041015625-1.6875.2900390625c.1640625.33984375.24609375.7412109375.24609375,1.2041015625,0,1.130859375-.3486328125,2.029296875-1.0458984375,2.6943359375s-1.6318359375.9970703125-2.8037109375.9970703125c-.3046875,0-.57421875-.0234375-.80859375-.0703125-.650390625.234375-.9755859375.5390625-.9755859375.9140625,0,.22265625.0927734375.375.2763671875.45703125.185546875.08203125.453125.146484375.8046875.193359375l1.1162109375.140625c1.03125.12890625,1.76953125.3857421875,2.21484375.7685546875.4453125.384765625.66796875.93359375.66796875,1.6484375,0,1.1484375-.4423828125,2.0361328125-1.3271484375,2.6630859375s-2.1416015625.9404296875-3.7705078125.9404296875c-1.189453125,0-2.111328125-.2197265625-2.7646484375-.6591796875-.65234375-.439453125-.9794921875-1.04296875-.9794921875-1.810546875,0-.603515625.2041015625-1.125.6103515625-1.564453125.408203125-.439453125,1.0625-.8115234375,1.96484375-1.1162109375-.4453125-.263671875-.66796875-.6357421875-.66796875-1.1162109375,0-.404296875.13671875-.75390625.408203125-1.0498046875.2734375-.2958984375.7021484375-.58203125,1.2880859375-.857421875-.791015625-.474609375-1.1865234375-1.212890625-1.1865234375-2.21484375,0-1.1484375.3583984375-2.07421875,1.076171875-2.77734375s1.666015625-1.0546875,2.84375-1.0546875c.46875,0,.9375.05859375,1.40625.17578125h3.3662109375ZM1153.1845703125,511.94921875c-.65625.10546875-1.16015625.3134765625-1.51171875.6240234375s-.52734375.6943359375-.52734375,1.1513671875c0,.380859375.162109375.68359375.48828125.91015625.32421875.224609375.8212890625.337890625,1.4892578125.337890625.955078125,0,1.7021484375-.158203125,2.2412109375-.474609375s.80859375-.7705078125.80859375-1.3623046875c0-.298828125-.1318359375-.533203125-.3955078125-.703125s-.7265625-.2900390625-1.388671875-.3603515625l-1.2041015625-.123046875ZM1155.5576171875,503.5908203125c-.380859375,0-.71484375.11328125-1.001953125.3388671875s-.509765625.533203125-.66796875.921875c-.158203125.390625-.2373046875.81640625-.2373046875,1.279296875,0,.416015625.103515625.7373046875.3115234375.962890625s.505859375.337890625.892578125.337890625c.380859375,0,.7099609375-.1142578125.98828125-.3427734375s.4951171875-.5419921875.650390625-.9404296875.2333984375-.8349609375.2333984375-1.3095703125c0-.83203125-.3896484375-1.248046875-1.1689453125-1.248046875Z"/>
        <path d="M1165.884765625,512.107421875l1.248046875-5.90625c.10546875-.52734375.158203125-.8994140625.158203125-1.1162109375,0-.791015625-.3779296875-1.1865234375-1.1337890625-1.1865234375-.65625,0-1.2705078125.3662109375-1.8408203125,1.0986328125-.572265625.732421875-.9892578125,1.734375-1.2529296875,3.005859375l-.861328125,4.1044921875h-2.07421875l2.900390625-13.67578125h2.0654296875l-.5009765625,2.302734375c-.158203125.73828125-.3720703125,1.5966796875-.6416015625,2.5751953125l-.1669921875.6591796875h.0703125c.4921875-.62109375.9853515625-1.0693359375,1.4814453125-1.3447265625.494140625-.275390625,1.0146484375-.4130859375,1.5595703125-.4130859375.796875,0,1.4072265625.2275390625,1.8330078125.681640625.423828125.4541015625.63671875,1.1025390625.63671875,1.9462890625,0,.4453125-.0673828125.955078125-.2021484375,1.529296875l-1.2216796875,5.7392578125h-2.056640625Z"/>
        <path d="M1174.83203125,512.283203125c-1.154296875,0-2.0556640625-.3251953125-2.703125-.9755859375s-.970703125-1.55859375-.970703125-2.724609375c0-1.16015625.2265625-2.2392578125.681640625-3.2392578125.453125-.998046875,1.068359375-1.7705078125,1.845703125-2.3154296875.775390625-.544921875,1.64453125-.8173828125,2.60546875-.8173828125.943359375,0,1.6767578125.212890625,2.201171875.63671875.5244140625.42578125.787109375,1.02734375.787109375,1.806640625,0,1.06640625-.48828125,1.900390625-1.462890625,2.5-.9765625.6015625-2.3662109375.9013671875-4.1708984375.9013671875h-.3779296875l-.017578125.2724609375v.2548828125c0,.650390625.1650390625,1.16015625.49609375,1.529296875s.8251953125.5537109375,1.4814453125.5537109375c.421875,0,.8408203125-.0556640625,1.2568359375-.1669921875s.908203125-.3017578125,1.4765625-.5712890625v1.6435546875c-.5625.2578125-1.080078125.44140625-1.55078125.5498046875-.47265625.107421875-.998046875.162109375-1.578125.162109375ZM1176.16796875,503.79296875c-.5625,0-1.091796875.251953125-1.5859375.755859375-.49609375.50390625-.8515625,1.1689453125-1.068359375,1.9951171875h.2548828125c1.1015625,0,1.962890625-.15625,2.583984375-.4697265625s.931640625-.7578125.931640625-1.33203125c0-.298828125-.09375-.53125-.28125-.69921875-.1875-.166015625-.4658203125-.25-.8349609375-.25Z"/>
        <path d="M1186.78515625,502.2109375c.36328125,0,.6796875.03515625.94921875.10546875l-.4482421875,1.9248046875c-.31640625-.08203125-.615234375-.123046875-.896484375-.123046875-.73828125,0-1.3974609375.3310546875-1.9775390625.9931640625s-.984375,1.529296875-1.212890625,2.6015625l-.931640625,4.39453125h-2.07421875l2.07421875-9.720703125h1.6171875l-.1845703125,1.8017578125h.0791015625c.486328125-.703125.97265625-1.2080078125,1.458984375-1.5166015625.486328125-.306640625,1.001953125-.4609375,1.546875-.4609375Z"/>
        <path d="M1195.802734375,510.61328125c.3984375,0,.8408203125-.0908203125,1.3271484375-.2724609375v1.564453125c-.205078125.099609375-.4833984375.1875-.8349609375.263671875s-.703125.1142578125-1.0546875.1142578125c-1.60546875,0-2.408203125-.7236328125-2.408203125-2.1708984375,0-.333984375.046875-.7177734375.140625-1.1513671875l1.0634765625-5.009765625h-1.423828125l.1845703125-.966796875,1.669921875-.720703125,1.1337890625-2.0390625h1.283203125l-.45703125,2.162109375h2.4521484375l-.3427734375,1.564453125h-2.4345703125l-1.072265625,5.02734375c-.076171875.322265625-.1142578125.591796875-.1142578125.80859375,0,.251953125.0732421875.453125.2197265625.6015625.146484375.150390625.369140625.224609375.66796875.224609375Z"/>
        <path d="M1201.919921875,512.283203125c-.826171875,0-1.4794921875-.296875-1.9599609375-.892578125-.48046875-.59375-.720703125-1.4306640625-.720703125-2.5087890625,0-1.18359375.203125-2.291015625.611328125-3.322265625.40625-1.03125.9677734375-1.8466796875,1.6826171875-2.4482421875.71484375-.599609375,1.5-.900390625,2.35546875-.900390625.568359375,0,1.0576171875.1337890625,1.4677734375.400390625s.7294921875.654296875.9580078125,1.1640625h.087890625l.544921875-1.388671875h1.58203125l-2.07421875,9.720703125h-1.599609375l.1845703125-1.546875h-.052734375c-.92578125,1.1484375-1.9482421875,1.72265625-3.0673828125,1.72265625ZM1202.67578125,510.61328125c.48046875,0,.9521484375-.2265625,1.4150390625-.681640625.462890625-.453125.84375-1.0615234375,1.142578125-1.8232421875s.4482421875-1.59375.4482421875-2.49609375c0-.515625-.1376953125-.9296875-.4130859375-1.2431640625s-.6357421875-.470703125-1.0810546875-.470703125c-.498046875,0-.966796875.2255859375-1.40625.6767578125s-.791015625,1.0654296875-1.0546875,1.8408203125c-.263671875.77734375-.3955078125,1.5810546875-.3955078125,2.4130859375,0,.59765625.119140625,1.044921875.35546875,1.3408203125.23828125.2958984375.5673828125.443359375.9892578125.443359375Z"/>
        <path d="M1213.134765625,508.7060546875l-2.6806640625,3.4013671875h-2.373046875l4.1748046875-5.0009765625-2.0302734375-4.7197265625h2.1533203125l1.265625,3.2783203125,2.5224609375-3.2783203125h2.408203125l-4.0517578125,4.8251953125,2.1796875,4.8955078125h-2.162109375l-1.40625-3.4013671875Z"/>
        <path d="M1227.390625,506.025390625c0,1.18359375-.2138671875,2.2607421875-.6416015625,3.23046875s-1.015625,1.712890625-1.76171875,2.232421875c-.748046875.517578125-1.607421875.77734375-2.580078125.77734375-1.125,0-2.0185546875-.3349609375-2.6806640625-1.005859375s-.9931640625-1.583984375-.9931640625-2.73828125c0-1.166015625.208984375-2.2353515625.62890625-3.2080078125.41796875-.97265625,1.005859375-1.7294921875,1.76171875-2.2724609375.755859375-.541015625,1.62890625-.8125,2.619140625-.8125,1.142578125,0,2.0361328125.33984375,2.6806640625,1.01953125s.966796875,1.60546875.966796875,2.77734375ZM1225.3076171875,505.9375c0-.626953125-.1435546875-1.1171875-.4306640625-1.47265625-.287109375-.353515625-.697265625-.53125-1.23046875-.53125-.544921875,0-1.0322265625.2099609375-1.4638671875.62890625-.4296875.4189453125-.763671875.9873046875-1.001953125,1.705078125-.236328125.7177734375-.35546875,1.4833984375-.35546875,2.2978515625,0,.650390625.14453125,1.1484375.435546875,1.494140625.2890625.345703125.71875.5185546875,1.287109375.5185546875.52734375,0,1.001953125-.19921875,1.423828125-.59765625s.75-.9560546875.984375-1.673828125.3515625-1.5078125.3515625-2.369140625Z"/>
        <path d="M1234.3955078125,512.107421875l1.248046875-5.90625c.10546875-.52734375.158203125-.9111328125.158203125-1.1513671875,0-.767578125-.3779296875-1.1513671875-1.1337890625-1.1513671875-.421875,0-.837890625.1669921875-1.248046875.5009765625s-.779296875.81640625-1.107421875,1.4462890625-.57421875,1.3427734375-.73828125,2.1396484375l-.861328125,4.1220703125h-2.07421875l2.07421875-9.720703125h1.6171875l-.1845703125,1.8017578125h.0791015625c.486328125-.69140625.9873046875-1.193359375,1.5029296875-1.5068359375s1.0751953125-.470703125,1.6787109375-.470703125c.78515625,0,1.3935546875.22265625,1.8232421875.66796875.431640625.4453125.646484375,1.078125.646484375,1.8984375,0,.404296875-.0673828125.9345703125-.2021484375,1.5908203125l-1.2041015625,5.7392578125h-2.07421875Z"/>
        <path d="M1248.326171875,506.025390625c0,1.18359375-.2138671875,2.2607421875-.6416015625,3.23046875s-1.015625,1.712890625-1.76171875,2.232421875c-.748046875.517578125-1.607421875.77734375-2.580078125.77734375-1.125,0-2.0185546875-.3349609375-2.6806640625-1.005859375s-.9931640625-1.583984375-.9931640625-2.73828125c0-1.166015625.208984375-2.2353515625.62890625-3.2080078125.41796875-.97265625,1.005859375-1.7294921875,1.76171875-2.2724609375.755859375-.541015625,1.62890625-.8125,2.619140625-.8125,1.142578125,0,2.0361328125.33984375,2.6806640625,1.01953125s.966796875,1.60546875.966796875,2.77734375ZM1246.2431640625,505.9375c0-.626953125-.1435546875-1.1171875-.4306640625-1.47265625-.287109375-.353515625-.697265625-.53125-1.23046875-.53125-.544921875,0-1.0322265625.2099609375-1.4638671875.62890625-.4296875.4189453125-.763671875.9873046875-1.001953125,1.705078125-.236328125.7177734375-.35546875,1.4833984375-.35546875,2.2978515625,0,.650390625.14453125,1.1484375.435546875,1.494140625.2890625.345703125.71875.5185546875,1.287109375.5185546875.52734375,0,1.001953125-.19921875,1.423828125-.59765625s.75-.9560546875.984375-1.673828125.3515625-1.5078125.3515625-2.369140625Z"/>
        <path d="M1256.25390625,502.2109375c1.2890625,0,2.033203125.6884765625,2.232421875,2.0654296875h.0703125c.439453125-.6796875.9384765625-1.193359375,1.4990234375-1.5419921875.55859375-.3486328125,1.140625-.5234375,1.744140625-.5234375.779296875,0,1.3720703125.224609375,1.779296875.671875.4072265625.44921875.611328125,1.080078125.611328125,1.89453125,0,.375-.064453125.9052734375-.193359375,1.5908203125l-1.23046875,5.7392578125h-2.0654296875l1.2568359375-5.90625c.111328125-.556640625.1669921875-.9462890625.1669921875-1.1689453125,0-.755859375-.3544921875-1.1337890625-1.0634765625-1.1337890625-.6328125,0-1.2236328125.36328125-1.771484375,1.08984375s-.947265625,1.6904296875-1.19921875,2.8916015625l-.8876953125,4.2275390625h-2.0654296875l1.2568359375-5.90625c.099609375-.48046875.1494140625-.8525390625.1494140625-1.1162109375,0-.791015625-.3427734375-1.1865234375-1.0283203125-1.1865234375-.64453125,0-1.2412109375.3720703125-1.7880859375,1.1162109375-.548828125.744140625-.9541015625,1.734375-1.2177734375,2.970703125l-.861328125,4.1220703125h-2.07421875l2.07421875-9.720703125h1.6171875l-.1845703125,1.8017578125h.0791015625c.8671875-1.318359375,1.8984375-1.9775390625,3.09375-1.9775390625Z"/>
        <path d="M1267.6357421875,512.107421875h-2.07421875l2.07421875-9.720703125h2.0654296875l-2.0654296875,9.720703125ZM1268.048828125,499.99609375c0-.3984375.1142578125-.720703125.3427734375-.966796875s.55078125-.369140625.966796875-.369140625c.310546875,0,.5625.078125.755859375.232421875.193359375.15625.2900390625.3916015625.2900390625.7080078125,0,.416015625-.1171875.744140625-.3515625.984375s-.5419921875.3603515625-.9228515625.3603515625c-.310546875,0-.568359375-.076171875-.7734375-.228515625s-.3076171875-.392578125-.3076171875-.720703125Z"/>
        <path d="M1274.5439453125,512.283203125c-1.1484375,0-2.0390625-.310546875-2.671875-.931640625s-.94921875-1.5087890625-.94921875-2.6630859375c0-1.212890625.21484375-2.3154296875.646484375-3.3095703125.4296875-.9921875,1.03515625-1.7685546875,1.814453125-2.328125s1.6640625-.83984375,2.654296875-.83984375c.9609375,0,1.8310546875.1787109375,2.6103515625.5361328125l-.615234375,1.6171875c-.71484375-.310546875-1.3623046875-.4658203125-1.9423828125-.4658203125-.87890625,0-1.611328125.4501953125-2.197265625,1.349609375s-.87890625,2.0107421875-.87890625,3.3349609375c0,.650390625.1640625,1.1513671875.4921875,1.5029296875s.7822265625.52734375,1.3623046875.52734375c.43359375,0,.8388671875-.064453125,1.2177734375-.193359375.376953125-.12890625.7568359375-.287109375,1.1376953125-.474609375v1.7138671875c-.8203125.416015625-1.7138671875.6240234375-2.6806640625.6240234375Z"/>
        <path d="M1137.2412109375,533.7080078125h-2.056640625l2.900390625-13.67578125h2.0654296875l-2.9091796875,13.67578125Z"/>
        <path d="M1144.2197265625,533.8837890625c-1.154296875,0-2.0556640625-.3251953125-2.703125-.9755859375s-.970703125-1.55859375-.970703125-2.724609375c0-1.16015625.2265625-2.2392578125.681640625-3.2392578125.453125-.998046875,1.068359375-1.7705078125,1.845703125-2.3154296875.775390625-.544921875,1.64453125-.8173828125,2.60546875-.8173828125.943359375,0,1.6767578125.212890625,2.201171875.63671875.5244140625.42578125.787109375,1.02734375.787109375,1.806640625,0,1.06640625-.48828125,1.900390625-1.462890625,2.5-.9765625.6015625-2.3662109375.9013671875-4.1708984375.9013671875h-.3779296875l-.017578125.2724609375v.2548828125c0,.650390625.1650390625,1.16015625.49609375,1.529296875s.8251953125.5537109375,1.4814453125.5537109375c.421875,0,.8408203125-.0556640625,1.2568359375-.1669921875s.908203125-.3017578125,1.4765625-.5712890625v1.6435546875c-.5625.2578125-1.080078125.44140625-1.55078125.5498046875-.47265625.107421875-.998046875.162109375-1.578125.162109375ZM1145.5556640625,525.3935546875c-.5625,0-1.091796875.251953125-1.5859375.755859375-.49609375.50390625-.8515625,1.1689453125-1.068359375,1.9951171875h.2548828125c1.1015625,0,1.962890625-.15625,2.583984375-.4697265625s.931640625-.7578125.931640625-1.33203125c0-.298828125-.09375-.53125-.28125-.69921875-.1875-.166015625-.4658203125-.25-.8349609375-.25Z"/>
        <path d="M1151.1982421875,533.7080078125l-1.1513671875-9.720703125h2.0390625l.4833984375,5.255859375c.08203125.931640625.123046875,1.8017578125.123046875,2.6103515625h.0615234375c.1640625-.43359375.369140625-.9169921875.615234375-1.4501953125s.4365234375-.919921875.5712890625-1.16015625l2.7333984375-5.255859375h2.197265625l-5.255859375,9.720703125h-2.4169921875Z"/>
        <path d="M1162.4306640625,533.8837890625c-1.154296875,0-2.0556640625-.3251953125-2.703125-.9755859375s-.970703125-1.55859375-.970703125-2.724609375c0-1.16015625.2265625-2.2392578125.681640625-3.2392578125.453125-.998046875,1.068359375-1.7705078125,1.845703125-2.3154296875.775390625-.544921875,1.64453125-.8173828125,2.60546875-.8173828125.943359375,0,1.6767578125.212890625,2.201171875.63671875.5244140625.42578125.787109375,1.02734375.787109375,1.806640625,0,1.06640625-.48828125,1.900390625-1.462890625,2.5-.9765625.6015625-2.3662109375.9013671875-4.1708984375.9013671875h-.3779296875l-.017578125.2724609375v.2548828125c0,.650390625.1650390625,1.16015625.49609375,1.529296875s.8251953125.5537109375,1.4814453125.5537109375c.421875,0,.8408203125-.0556640625,1.2568359375-.1669921875s.908203125-.3017578125,1.4765625-.5712890625v1.6435546875c-.5625.2578125-1.080078125.44140625-1.55078125.5498046875-.47265625.107421875-.998046875.162109375-1.578125.162109375ZM1163.7666015625,525.3935546875c-.5625,0-1.091796875.251953125-1.5859375.755859375-.49609375.50390625-.8515625,1.1689453125-1.068359375,1.9951171875h.2548828125c1.1015625,0,1.962890625-.15625,2.583984375-.4697265625s.931640625-.7578125.931640625-1.33203125c0-.298828125-.09375-.53125-.28125-.69921875-.1875-.166015625-.4658203125-.25-.8349609375-.25Z"/>
        <path d="M1169.8486328125,533.7080078125h-2.056640625l2.900390625-13.67578125h2.0654296875l-2.9091796875,13.67578125Z"/>
        <path d="M1179.2001953125,530.7197265625c0,1.013671875-.345703125,1.794921875-1.037109375,2.341796875-.69140625.548828125-1.65234375.822265625-2.8828125.822265625-1.11328125,0-2.056640625-.1962890625-2.830078125-.5888671875v-1.7841796875c.896484375.52734375,1.810546875.791015625,2.7421875.791015625.568359375,0,1.0283203125-.1171875,1.3798828125-.3515625s.52734375-.5537109375.52734375-.9580078125c0-.298828125-.1005859375-.5546875-.3037109375-.7685546875-.201171875-.2138671875-.6162109375-.5-1.2431640625-.857421875-.732421875-.392578125-1.25-.7919921875-1.5517578125-1.19921875s-.4521484375-.8896484375-.4521484375-1.4462890625c0-.908203125.3134765625-1.6201171875.9404296875-2.1357421875s1.4736328125-.7734375,2.5400390625-.7734375c1.1484375,0,2.162109375.24609375,3.041015625.73828125l-.66796875,1.546875c-.8203125-.4453125-1.599609375-.66796875-2.337890625-.66796875-.427734375,0-.775390625.0966796875-1.0419921875.2900390625s-.3994140625.462890625-.3994140625.80859375c0,.263671875.0966796875.498046875.2900390625.703125s.5888671875.46875,1.1865234375.791015625c.615234375.345703125,1.0517578125.6416015625,1.3095703125.8876953125s.4541015625.513671875.5888671875.8046875c.134765625.2890625.2021484375.625.2021484375,1.005859375Z"/>
      </g>
      <rect class="cls-27" x="1107.1752838579" y="299.7253088809" width="192.1932667131" height="269" rx="16.2878072537" ry="16.2878072537"/>
      <path class="cls-15" d="M1122.7540030117,299.7253088809h159.7310791257c9.18333337,0,16.6390349283,7.4557015583,16.6390349283,16.6390349283v34.9965908213h-191.7043997026v-36.301340101c0-8.4632226394,6.8710630093-15.3342856486,15.3342856486-15.3342856486Z"/>
      <text class="cls-9" transform="translate(1161.6824951172 333.121673584)"><tspan x="0" y="0">Output</tspan></text>
    </g>
  </g>
  <text class="cls-2" transform="translate(56.7826538086 662.6497192383)"><tspan x="0" y="0">In</tspan><tspan class="cls-30" x="30.720703125" y="0">t</tspan><tspan x="42.9965820312" y="0">e</tspan><tspan class="cls-39" x="61.96875" y="0">r</tspan><tspan x="74.4619140625" y="0">p</tspan><tspan class="cls-36" x="95.603515625" y="0">r</tspan><tspan x="107.94140625" y="0">etation of </tspan><tspan class="cls-31" x="267.8686523438" y="0">C</tspan><tspan class="cls-1" x="289.7543945312" y="0">umulati</tspan><tspan class="cls-29" x="413.1630859375" y="0">v</tspan><tspan class="cls-1" x="430.0268554688" y="0">e S</tspan><tspan class="cls-40" x="476.5883789062" y="0">c</tspan><tspan class="cls-1" x="494.0415039062" y="0">o</tspan><tspan class="cls-36" x="513.7260742188" y="0">r</tspan><tspan class="cls-1" x="526.0639648438" y="0">es:</tspan></text>
  <g>
    <g>
      <rect class="cls-14" x="736.6125488281" y="625.0515848796" width="55" height="55"/>
      <text class="cls-3" transform="translate(752.0593261719 666.8782444)"><tspan x="0" y="0">5</tspan></text>
    </g>
    <g>
      <rect class="cls-24" x="809.8900390625" y="625.0515848796" width="55" height="55"/>
      <text class="cls-3" transform="translate(823.336807251 666.8782501221)"><tspan x="0" y="0">4</tspan></text>
    </g>
    <g>
      <rect class="cls-21" x="883.1675292969" y="625.0515848796" width="55" height="55"/>
      <text class="cls-4" transform="translate(899.6143035889 666.8782501221)"><tspan x="0" y="0">3</tspan></text>
    </g>
    <g>
      <rect class="cls-22" x="956.4450195312" y="625.0515848796" width="55" height="55"/>
      <text class="cls-4" transform="translate(972.8917999268 666.8782501221)"><tspan x="0" y="0">2</tspan></text>
    </g>
    <g>
      <rect class="cls-23" x="1029.7225097656" y="625.0515848796" width="55" height="55"/>
      <text class="cls-11" transform="translate(1046.1692810059 666.8782501221)"><tspan x="0" y="0">1</tspan></text>
    </g>
    <g>
      <rect class="cls-16" x="1103" y="625.0515848796" width="55" height="55"/>
      <text class="cls-7" transform="translate(1118.4467773438 666.8782501221)"><tspan x="0" y="0">0</tspan></text>
    </g>
  </g>
  <g>
    <polyline class="cls-26" points="874.1536254883 625.051574707 874.1536254883 727.01953125 750.7348022461 727.01953125"/>
    <path class="cls-6" d="M736.6125488281,727.01953125c6.6451416016-2.4656982422,14.8900756836-6.672668457,20.000793457-11.1287231445l-4.0252685547,11.1287231445,4.0252685547,11.1264038086c-5.1107177734-4.4560546875-13.3556518555-8.6630249023-20.000793457-11.1264038086Z"/>
  </g>
  <text class="cls-19" transform="translate(686.8735351562 709.359375)"><tspan x="0" y="0">Ancient Genus</tspan></text>
</svg>